<?xml version="1.0" encoding="UTF-8"?>
<svg id="Capa_2" data-name="Capa 2" xmlns="http://www.w3.org/2000/svg" viewBox="0 0 474.61 104.35">
  <g id="Capa_1-2" data-name="Capa 1">
    <g>
      <path d="m0,66.35V0h7.18v66.35H0Z"/>
      <path d="m56.87,57.26c-1.53,2.38-3.39,4.4-5.56,6.07-2.18,1.67-4.76,2.87-7.76,3.62s-5.81.87-8.61.41c-2.8-.46-5.39-1.41-7.78-2.84-2.39-1.44-4.44-3.28-6.15-5.54-1.72-2.26-2.94-4.86-3.67-7.8s-.86-5.72-.43-8.51c.43-2.79,1.33-5.37,2.71-7.75,1.38-2.37,3.18-4.41,5.41-6.12,2.23-1.71,4.75-2.91,7.58-3.62s5.44-.79,8.2-.35c2.76.44,5.3,1.37,7.62,2.79,2.32,1.42,4.36,3.29,6.12,5.6,1.76,2.31,3.02,4.99,3.78,8.05.03.12.05.25.05.41,0,.16.03.29.05.41l.09.35-33.87,8.42c.64,1.84,1.55,3.46,2.71,4.85,1.16,1.4,2.5,2.52,4.02,3.36,1.52.84,3.17,1.4,4.96,1.67,1.79.27,3.59.18,5.41-.27,1.94-.48,3.71-1.34,5.3-2.58,1.6-1.24,2.84-2.69,3.74-4.35l6.08,3.73Zm-7.63-18.99l.04-.2c-.75-1.25-1.68-2.36-2.8-3.33-1.12-.97-2.34-1.74-3.67-2.32-1.33-.57-2.73-.93-4.2-1.06-1.47-.13-2.94-.02-4.41.35-3,.75-5.45,2.31-7.36,4.69-1.91,2.38-2.93,5.05-3.06,8.02l.13.15,25.31-6.3Z"/>
      <path d="m107.52,66.35h-7.45v-4.27l-.18-.18c-1.52,1.88-3.38,3.32-5.59,4.32-2.21,1-4.59,1.5-7.13,1.5-3.03,0-5.88-.56-8.54-1.68-2.67-1.12-4.98-2.67-6.95-4.64-1.97-1.97-3.53-4.26-4.68-6.86-1.15-2.6-1.73-5.39-1.73-8.36s.58-5.77,1.73-8.41c1.15-2.64,2.71-4.92,4.68-6.86,1.97-1.94,4.29-3.48,6.95-4.64,2.67-1.15,5.51-1.73,8.54-1.73,2.54,0,4.91.53,7.09,1.59,2.18,1.06,4.06,2.5,5.63,4.32l.18-.18v-4.36h7.45v40.44Zm-34.81-20.18c0,2,.36,3.88,1.09,5.63.73,1.76,1.73,3.3,3,4.64,1.27,1.33,2.76,2.38,4.45,3.14,1.7.76,3.51,1.14,5.45,1.14s3.85-.39,5.54-1.18c1.7-.79,3.18-1.85,4.45-3.18,1.27-1.33,2.26-2.88,2.95-4.64.7-1.76,1.04-3.6,1.04-5.54s-.35-3.79-1.04-5.54c-.7-1.76-1.68-3.32-2.95-4.68s-2.76-2.44-4.45-3.23c-1.7-.79-3.54-1.18-5.54-1.18s-3.76.38-5.45,1.14c-1.7.76-3.18,1.8-4.45,3.14-1.27,1.33-2.27,2.89-3,4.68-.73,1.79-1.09,3.68-1.09,5.68Z"/>
      <path d="m117.06,46.17c0-2.97.58-5.77,1.73-8.41,1.15-2.64,2.71-4.92,4.68-6.86,1.97-1.94,4.27-3.48,6.91-4.64,2.64-1.15,5.47-1.73,8.5-1.73s5.88.58,8.54,1.73c2.67,1.15,4.98,2.7,6.95,4.64,1.97,1.94,3.53,4.23,4.68,6.86,1.15,2.64,1.73,5.44,1.73,8.41s-.58,5.76-1.73,8.36c-1.15,2.61-2.71,4.89-4.68,6.86-1.97,1.97-4.29,3.51-6.95,4.64-2.67,1.12-5.51,1.68-8.54,1.68s-5.86-.56-8.5-1.68c-2.64-1.12-4.94-2.67-6.91-4.64-1.97-1.97-3.53-4.26-4.68-6.86-1.15-2.6-1.73-5.39-1.73-8.36Zm7.54,0c0,2,.38,3.88,1.14,5.63.76,1.76,1.77,3.3,3.04,4.64,1.27,1.33,2.77,2.38,4.5,3.14,1.73.76,3.59,1.14,5.59,1.14s3.86-.38,5.59-1.14c1.73-.76,3.24-1.8,4.54-3.14,1.3-1.33,2.33-2.88,3.09-4.64.76-1.76,1.14-3.64,1.14-5.63s-.38-3.89-1.14-5.68c-.76-1.79-1.79-3.35-3.09-4.68-1.3-1.33-2.82-2.38-4.54-3.14-1.73-.76-3.59-1.14-5.59-1.14s-3.86.38-5.59,1.14c-1.73.76-3.23,1.8-4.5,3.14-1.27,1.33-2.29,2.89-3.04,4.68-.76,1.79-1.14,3.68-1.14,5.68Z"/>
      <path d="m197.59,0h7.45v30.27l.18.18c1.58-1.82,3.45-3.26,5.64-4.32,2.18-1.06,4.54-1.59,7.09-1.59,3.03,0,5.88.58,8.54,1.73,2.67,1.15,4.98,2.7,6.95,4.64,1.97,1.94,3.53,4.23,4.68,6.86,1.15,2.64,1.73,5.44,1.73,8.41s-.58,5.76-1.73,8.36c-1.15,2.61-2.71,4.89-4.68,6.86-1.97,1.97-4.29,3.51-6.95,4.64-2.67,1.12-5.51,1.68-8.54,1.68-2.54,0-4.91-.5-7.09-1.5-2.18-1-4.06-2.44-5.64-4.32l-.18.18v4.27h-7.45V0Zm34.81,46.17c0-2-.36-3.89-1.09-5.68-.73-1.79-1.73-3.35-3-4.68-1.27-1.33-2.76-2.38-4.45-3.14-1.7-.76-3.51-1.14-5.45-1.14s-3.85.4-5.54,1.18c-1.7.79-3.18,1.86-4.45,3.23s-2.26,2.92-2.95,4.68c-.7,1.76-1.04,3.61-1.04,5.54s.35,3.79,1.04,5.54c.7,1.76,1.68,3.3,2.95,4.64,1.27,1.33,2.76,2.39,4.45,3.18,1.7.79,3.54,1.18,5.54,1.18s3.76-.38,5.45-1.14c1.7-.76,3.18-1.8,4.45-3.14,1.27-1.33,2.27-2.88,3-4.64.73-1.76,1.09-3.64,1.09-5.63Z"/>
      <path d="m275.84,33.17c-.85-.48-1.74-.88-2.68-1.18-.94-.3-2.17-.45-3.68-.45-1.76,0-3.41.35-4.95,1.05-1.54.7-2.91,1.64-4.09,2.82s-2.11,2.58-2.77,4.18c-.67,1.61-1,3.32-1,5.13v21.63h-7.27V25.9h7.27v5l.18.09c1.27-1.94,3.15-3.5,5.63-4.68,2.48-1.18,5.18-1.77,8.09-1.77,2.06,0,3.79.18,5.18.55,1.39.36,2.73.85,4,1.45l-3.91,6.63Z"/>
      <path d="m325.37,66.35h-7.45v-4.27l-.18-.18c-1.52,1.88-3.38,3.32-5.59,4.32-2.21,1-4.59,1.5-7.13,1.5-3.03,0-5.88-.56-8.54-1.68-2.67-1.12-4.98-2.67-6.95-4.64-1.97-1.97-3.53-4.26-4.68-6.86-1.15-2.6-1.73-5.39-1.73-8.36s.58-5.77,1.73-8.41c1.15-2.64,2.71-4.92,4.68-6.86,1.97-1.94,4.29-3.48,6.95-4.64,2.67-1.15,5.51-1.73,8.54-1.73,2.54,0,4.91.53,7.09,1.59,2.18,1.06,4.06,2.5,5.63,4.32l.18-.18v-4.36h7.45v40.44Zm-34.81-20.18c0,2,.36,3.88,1.09,5.63.73,1.76,1.73,3.3,3,4.64,1.27,1.33,2.76,2.38,4.45,3.14,1.7.76,3.51,1.14,5.45,1.14s3.85-.39,5.54-1.18c1.7-.79,3.18-1.85,4.45-3.18,1.27-1.33,2.26-2.88,2.95-4.64.7-1.76,1.04-3.6,1.04-5.54s-.35-3.79-1.04-5.54c-.7-1.76-1.68-3.32-2.95-4.68s-2.76-2.44-4.45-3.23c-1.7-.79-3.54-1.18-5.54-1.18s-3.76.38-5.45,1.14c-1.7.76-3.18,1.8-4.45,3.14-1.27,1.33-2.27,2.89-3,4.68-.73,1.79-1.09,3.68-1.09,5.68Z"/>
      <path d="m358.36,31.54c-1.76,0-3.41.35-4.95,1.05-1.55.7-2.91,1.64-4.09,2.82-1.18,1.18-2.11,2.58-2.77,4.18-.67,1.61-1,3.32-1,5.13v21.63h-7.45V25.9h7.45v5l.18.09c1.21-1.94,3.07-3.5,5.59-4.68,2.51-1.18,5.23-1.77,8.13-1.77,4.18,0,7.51.68,10,2.04,2.48,1.36,4.36,3.08,5.63,5.14,1.27,2.06,2.1,4.3,2.5,6.73.39,2.42.59,4.7.59,6.82v21.09h-7.45v-21.63c0-.91-.09-2.1-.27-3.59-.18-1.48-.68-2.94-1.5-4.36-.82-1.42-2.04-2.65-3.68-3.68-1.64-1.03-3.94-1.55-6.91-1.55Z"/>
      <path d="m424.98,61.44c-2,1.94-4.32,3.47-6.95,4.59-2.64,1.12-5.47,1.68-8.5,1.68s-5.86-.56-8.5-1.68c-2.64-1.12-4.94-2.67-6.91-4.64-1.97-1.97-3.53-4.26-4.68-6.86-1.15-2.6-1.73-5.39-1.73-8.36s.58-5.77,1.73-8.41c1.15-2.64,2.71-4.92,4.68-6.86,1.97-1.94,4.27-3.48,6.91-4.64,2.64-1.15,5.47-1.73,8.5-1.73s5.85.56,8.45,1.68c2.6,1.12,4.91,2.65,6.91,4.59l-5.18,5.09c-1.33-1.33-2.86-2.39-4.59-3.18-1.73-.79-3.59-1.18-5.59-1.18s-3.86.38-5.59,1.14c-1.73.76-3.23,1.8-4.5,3.14-1.27,1.33-2.29,2.89-3.04,4.68-.76,1.79-1.14,3.68-1.14,5.68s.38,3.88,1.14,5.63c.76,1.76,1.77,3.3,3.04,4.64,1.27,1.33,2.77,2.38,4.5,3.14,1.73.76,3.59,1.14,5.59,1.14s3.88-.39,5.63-1.18c1.76-.79,3.3-1.88,4.64-3.27l5.18,5.18Z"/>
      <path d="m430.89,46.17c0-2.97.58-5.77,1.73-8.41,1.15-2.64,2.71-4.92,4.68-6.86,1.97-1.94,4.27-3.48,6.91-4.64,2.64-1.15,5.47-1.73,8.5-1.73s5.88.58,8.54,1.73c2.67,1.15,4.98,2.7,6.95,4.64,1.97,1.94,3.53,4.23,4.68,6.86,1.15,2.64,1.73,5.44,1.73,8.41s-.58,5.76-1.73,8.36c-1.15,2.61-2.71,4.89-4.68,6.86-1.97,1.97-4.29,3.51-6.95,4.64-2.67,1.12-5.51,1.68-8.54,1.68s-5.86-.56-8.5-1.68c-2.64-1.12-4.94-2.67-6.91-4.64-1.97-1.97-3.53-4.26-4.68-6.86-1.15-2.6-1.73-5.39-1.73-8.36Zm7.54,0c0,2,.38,3.88,1.14,5.63.76,1.76,1.77,3.3,3.04,4.64,1.27,1.33,2.77,2.38,4.5,3.14,1.73.76,3.59,1.14,5.59,1.14s3.86-.38,5.59-1.14c1.73-.76,3.24-1.8,4.54-3.14,1.3-1.33,2.33-2.88,3.09-4.64.76-1.76,1.14-3.64,1.14-5.63s-.38-3.89-1.14-5.68c-.76-1.79-1.79-3.35-3.09-4.68-1.3-1.33-2.82-2.38-4.54-3.14-1.73-.76-3.59-1.14-5.59-1.14s-3.86.38-5.59,1.14c-1.73.76-3.23,1.8-4.5,3.14-1.27,1.33-2.29,2.89-3.04,4.68-.76,1.79-1.14,3.68-1.14,5.68Z"/>
      <path d="m258.37,94.09c-.17-3.14-.37-6.91-.33-9.72h-.1c-.77,2.64-1.7,5.44-2.84,8.55l-3.98,10.92h-2.2l-3.64-10.72c-1.07-3.17-1.97-6.08-2.6-8.75h-.07c-.07,2.81-.23,6.58-.43,9.95l-.6,9.65h-2.77l1.57-22.51h3.71l3.84,10.89c.94,2.77,1.7,5.24,2.27,7.58h.1c.57-2.27,1.37-4.74,2.37-7.58l4.01-10.89h3.71l1.4,22.51h-2.84l-.57-9.89Z"/>
      <path d="m280.98,95.76c0,5.98-4.14,8.58-8.05,8.58-4.38,0-7.75-3.21-7.75-8.32,0-5.41,3.54-8.58,8.02-8.58s7.78,3.37,7.78,8.32Zm-12.83.17c0,3.54,2.04,6.21,4.91,6.21s4.91-2.64,4.91-6.28c0-2.74-1.37-6.21-4.84-6.21s-4.98,3.21-4.98,6.28Z"/>
      <path d="m285.59,87.81l3.17,9.09c.53,1.47.97,2.81,1.3,4.14h.1c.37-1.34.83-2.67,1.37-4.14l3.14-9.09h3.07l-6.35,16.17h-2.81l-6.15-16.17h3.14Z"/>
      <path d="m301.82,96.43c.07,3.98,2.6,5.61,5.54,5.61,2.1,0,3.37-.37,4.48-.83l.5,2.1c-1.04.47-2.81,1-5.38,1-4.98,0-7.95-3.27-7.95-8.15s2.87-8.72,7.58-8.72c5.28,0,6.68,4.64,6.68,7.62,0,.6-.07,1.07-.1,1.37h-11.36Zm8.62-2.1c.03-1.87-.77-4.78-4.07-4.78-2.97,0-4.28,2.74-4.51,4.78h8.58Z"/>
      <path d="m320.18,83.27c.03,1-.7,1.8-1.87,1.8-1.04,0-1.77-.8-1.77-1.8s.77-1.84,1.84-1.84,1.8.8,1.8,1.84Zm-3.27,20.71v-16.17h2.94v16.17h-2.94Z"/>
      <path d="m324.32,100.98c.87.57,2.4,1.17,3.87,1.17,2.14,0,3.14-1.07,3.14-2.41,0-1.4-.83-2.17-3.01-2.97-2.91-1.04-4.28-2.64-4.28-4.58,0-2.61,2.1-4.74,5.58-4.74,1.64,0,3.07.47,3.98,1l-.73,2.14c-.63-.4-1.8-.94-3.31-.94-1.74,0-2.71,1-2.71,2.2,0,1.34.97,1.94,3.07,2.74,2.81,1.07,4.24,2.47,4.24,4.88,0,2.84-2.2,4.84-6.05,4.84-1.77,0-3.41-.43-4.54-1.1l.73-2.24Z"/>
      <path d="m358.99,80.27v19.54c0,1.44.03,3.07.13,4.18h-2.64l-.13-2.81h-.07c-.9,1.8-2.87,3.17-5.51,3.17-3.91,0-6.91-3.31-6.91-8.22-.03-5.38,3.31-8.68,7.25-8.68,2.47,0,4.14,1.17,4.88,2.47h.07v-9.65h2.94Zm-2.94,14.13c0-.37-.03-.87-.13-1.24-.43-1.87-2.04-3.41-4.24-3.41-3.04,0-4.84,2.67-4.84,6.25,0,3.27,1.6,5.98,4.78,5.98,1.97,0,3.77-1.3,4.31-3.51.1-.4.13-.8.13-1.27v-2.81Z"/>
      <path d="m378.49,95.76c0,5.98-4.14,8.58-8.05,8.58-4.38,0-7.75-3.21-7.75-8.32,0-5.41,3.54-8.58,8.02-8.58s7.78,3.37,7.78,8.32Zm-12.83.17c0,3.54,2.04,6.21,4.91,6.21s4.91-2.64,4.91-6.28c0-2.74-1.37-6.21-4.84-6.21s-4.98,3.21-4.98,6.28Z"/>
      <path d="m389.38,81.77c1.27-.27,3.27-.47,5.31-.47,2.91,0,4.78.5,6.18,1.64,1.17.87,1.87,2.2,1.87,3.97,0,2.17-1.44,4.08-3.81,4.94v.07c2.14.53,4.64,2.3,4.64,5.65,0,1.94-.77,3.41-1.9,4.51-1.57,1.44-4.11,2.1-7.78,2.1-2,0-3.54-.13-4.51-.27v-22.15Zm2.91,9.22h2.64c3.07,0,4.88-1.6,4.88-3.77,0-2.64-2-3.67-4.94-3.67-1.34,0-2.1.1-2.57.2v7.25Zm0,10.79c.57.1,1.4.13,2.44.13,3.01,0,5.78-1.1,5.78-4.38,0-3.07-2.64-4.34-5.81-4.34h-2.4v8.58Z"/>
      <path d="m407.38,92.86c0-1.9-.03-3.54-.13-5.04h2.57l.1,3.17h.13c.73-2.17,2.51-3.54,4.48-3.54.33,0,.57.03.83.1v2.77c-.3-.07-.6-.1-1-.1-2.07,0-3.54,1.57-3.94,3.77-.07.4-.13.87-.13,1.37v8.62h-2.91v-11.12Z"/>
      <path d="m427.08,103.98l-.23-2.04h-.1c-.9,1.27-2.64,2.4-4.94,2.4-3.27,0-4.94-2.3-4.94-4.64,0-3.91,3.47-6.05,9.72-6.01v-.33c0-1.34-.37-3.74-3.67-3.74-1.5,0-3.07.47-4.21,1.2l-.67-1.94c1.34-.87,3.27-1.44,5.31-1.44,4.94,0,6.15,3.37,6.15,6.61v6.05c0,1.4.07,2.77.27,3.87h-2.67Zm-.43-8.25c-3.21-.07-6.85.5-6.85,3.64,0,1.9,1.27,2.81,2.77,2.81,2.1,0,3.44-1.34,3.91-2.71.1-.3.17-.63.17-.94v-2.81Z"/>
      <path d="m433.82,100.98c.87.57,2.4,1.17,3.87,1.17,2.14,0,3.14-1.07,3.14-2.41,0-1.4-.83-2.17-3.01-2.97-2.91-1.04-4.28-2.64-4.28-4.58,0-2.61,2.1-4.74,5.58-4.74,1.64,0,3.07.47,3.98,1l-.73,2.14c-.63-.4-1.8-.94-3.31-.94-1.74,0-2.71,1-2.71,2.2,0,1.34.97,1.94,3.07,2.74,2.81,1.07,4.24,2.47,4.24,4.88,0,2.84-2.2,4.84-6.05,4.84-1.77,0-3.41-.43-4.54-1.1l.73-2.24Z"/>
      <path d="m450.72,83.27c.03,1-.7,1.8-1.87,1.8-1.04,0-1.77-.8-1.77-1.8s.77-1.84,1.84-1.84,1.8.8,1.8,1.84Zm-3.27,20.71v-16.17h2.94v16.17h-2.94Z"/>
      <path d="m455.26,80.27h2.94v23.71h-2.94v-23.71Z"/>
    </g>
  </g>
</svg>