<?xml version="1.0" encoding="UTF-8"?>
<svg id="Capa_2" data-name="Capa 2" xmlns="http://www.w3.org/2000/svg" viewBox="0 0 441.43 126.64">
  <defs>
    <style>
      .cls-1 {
        fill: #fff;
      }

      .cls-2 {
        fill: none;
        stroke: #fff;
        stroke-linecap: round;
        stroke-linejoin: round;
        stroke-width: 3px;
      }
    </style>
  </defs>
  <g id="Capa_1-2" data-name="Capa 1">
    <g>
      <path class="cls-1" d="m240.48,26.44c0-2.29-1.86-4.15-4.15-4.15h-6.02c-.6,0-1.16.13-1.67.35,2.63-2.29,4.29-5.65,4.29-9.41,0-.66-.05-1.3-.15-1.93,2.24-.81,3.84-2.95,3.84-5.47,0-3.22-2.61-5.83-5.83-5.83-1.84,0-3.48.85-4.54,2.18-1.73-.91-3.7-1.42-5.79-1.42s-4.06.52-5.79,1.42c-1.07-1.33-2.71-2.18-4.54-2.18-3.22,0-5.83,2.61-5.83,5.83,0,2.52,1.6,4.66,3.84,5.47-.1.63-.15,1.27-.15,1.93,0,3.64,1.56,6.91,4.05,9.19-.33-.09-.68-.14-1.04-.14h-6.02c-2.29,0-4.15,1.86-4.15,4.15s1.86,4.15,4.15,4.15h3.97c-.02.29-.04.57-.04.86v4.22c0,.51.04,1.02.1,1.52l-4.87,4.87c-1.97,1.97-1.97,5.15,0,7.12,1.97,1.97,5.15,1.97,7.12,0l3.48-3.48c1.69.96,3.64,1.52,5.72,1.52s4.03-.55,5.72-1.52l3.48,3.48c1.97,1.97,5.15,1.97,7.12,0,1.97-1.97,1.97-5.15,0-7.12l-4.87-4.87c.07-.5.1-1,.1-1.52v-4.22c0-.29-.01-.58-.04-.86h4.36c2.29,0,4.15-1.86,4.15-4.15Zm-14-16.39c.13,0,.25.02.36.06.23.21.48.41.74.58.11.19.17.4.17.63,0,.7-.57,1.28-1.28,1.28s-1.28-.57-1.28-1.28.57-1.28,1.28-1.28Zm1.84-6.64c1.32-1.11,3.3-.94,4.41.39,1.11,1.32.94,3.3-.39,4.41l-1.28-1.53c-.63-1.02-1.41-1.95-2.31-2.75l-.44-.52Zm-11.61,14.86c.28-.28.74-.28,1.02,0,.57.57,1.27.92,2,1.06v-3.01c-1.29-.92-1.3-2.02-1.3-2.14,0,0,0,0,0,0,0-.6.49-1.16,1.09-1.16h1.85c.6,0,1.09.55,1.09,1.16,0,0,.07,1.18-1.3,2.15v3.01c.73-.14,1.44-.49,2-1.06.28-.28.74-.28,1.02,0s.28.74,0,1.02c-1.03,1.03-2.39,1.55-3.75,1.55s-2.71-.52-3.75-1.55c-.28-.28-.28-.74,0-1.02Zm-3.38-7.58c.26-.17.51-.37.74-.58.12-.03.24-.06.36-.06.7,0,1.28.57,1.28,1.28s-.57,1.28-1.28,1.28-1.28-.57-1.28-1.28c0-.23.07-.45.17-.63Zm-4.76-2.49c-1.32-1.11-1.5-3.08-.39-4.41,1.11-1.32,3.08-1.5,4.41-.39l-.44.52c-.89.8-1.67,1.72-2.31,2.75l-1.28,1.52Zm20.64,35.01s0,0,0,0c0,0,0,0,0,0Zm1.77-2.77s0,0,0,0c0,0,0,0,0,0Z"/>
      <g>
        <path class="cls-1" d="m21.84,108.5c0,5.73,0,10.44.3,12.95.18,1.73.54,3.04,2.33,3.28.84.12,2.15.24,2.69.24.36,0,.48.18.48.36,0,.3-.3.48-.95.48-3.28,0-7.04-.18-7.34-.18s-4.06.18-5.85.18c-.66,0-.95-.12-.95-.48,0-.18.12-.36.48-.36.54,0,1.25-.12,1.79-.24,1.19-.24,1.49-1.55,1.73-3.28.3-2.51.3-7.22.3-12.95v-25.24c-2.92.06-5.91.06-8.83.12-3.7.06-5.13.48-6.09,1.91-.66,1.02-.84,1.43-1.01,1.85-.18.48-.36.6-.6.6-.18,0-.3-.18-.3-.54,0-.6,1.19-5.73,1.31-6.21.12-.36.36-1.13.6-1.13.42,0,1.01.6,2.63.72,1.73.18,4,.3,4.71.3h22.38c1.91,0,3.28-.12,4.24-.3.9-.12,1.43-.3,1.67-.3.3,0,.3.36.3.72,0,1.79-.18,5.91-.18,6.57,0,.54-.18.78-.42.78-.3,0-.42-.18-.48-1.02,0-.24-.06-.42-.06-.66-.18-1.79-1.61-3.16-7.34-3.28-2.51-.06-5.01-.06-7.52-.12v25.24Z"/>
        <path class="cls-1" d="m42.43,103.18c0-9.67,7.04-23.33,23.51-23.33,13.43,0,23.45,8.48,23.45,22.38s-9.43,24.41-23.81,24.41c-16.35,0-23.16-12.71-23.16-23.45Zm41.24.72c0-14.32-8.71-22.02-18.14-22.02-9.97,0-17.43,6.56-17.43,19.63,0,13.91,8.36,22.86,19.1,22.86,5.37,0,16.47-3.1,16.47-20.47Z"/>
        <path class="cls-1" d="m101.27,108.2c0-21.54.12-13.79.06-25.36,0-2.33.18-2.98.66-2.98s1.49,1.31,2.09,1.91c.9,1.01,9.79,10.62,18.98,20.47,5.91,6.33,12.41,13.61,14.32,15.58l-.66-30.32c-.06-3.88-.48-5.19-2.33-5.67-1.07-.24-2.03-.3-2.57-.3-.66,0-.84-.18-.84-.42,0-.36.48-.42,1.19-.42,2.69,0,5.55.18,6.21.18s2.63-.18,5.07-.18c.66,0,1.07.06,1.07.42,0,.24-.24.36-.66.42-.48.06-.84.12-1.55.24-1.67.36-2.09,1.25-2.09,5.37l-.12,34.85c0,3.94-.12,4.24-.54,4.24-.48,0-1.19-.66-4.36-3.82-.66-.6-9.25-9.37-15.58-16.17-6.92-7.46-13.67-14.98-15.58-17.13l.78,28.59c.12,4.89.72,6.45,2.33,6.92,1.13.3,2.45.36,2.98.36.3,0,.48.12.48.36,0,.36-.36.48-1.07.48-3.4,0-5.79-.18-6.33-.18s-3.04.18-5.73.18c-.6,0-.95-.06-.95-.48,0-.24.18-.36.48-.36.48,0,1.55-.06,2.45-.36,1.49-.42,1.79-2.15,1.79-7.58v-8.83Zm14.14-34.79c-1.73,0-2.8.54-3.88,1.85-.48.54-.6.6-.9.6-.18,0-.3-.3.06-.89,1.67-2.69,3.88-4.36,5.85-4.36,1.07,0,2.57.36,5.43,1.49,1.85.72,3.16,1.07,4.06,1.07,1.97,0,2.92-.54,4.42-2.15.3-.36.6-.54.72-.54.42,0,.3.48.06.89-1.43,2.21-3.58,4.72-6.21,4.72s-6.86-2.69-9.61-2.69Z"/>
        <path class="cls-1" d="m162.5,108.2c-.3,0-.48.18-.6.48l-3.58,10.56c-.54,1.49-.84,2.92-.84,4,0,1.19,1.13,1.73,2.15,1.73h.54c.6,0,.78.12.78.36,0,.36-.54.48-1.07.48-1.43,0-3.82-.18-4.48-.18s-3.94.18-6.74.18c-.78,0-1.13-.12-1.13-.48,0-.24.3-.36.84-.36.42,0,.95-.06,1.43-.12,2.75-.36,3.94-2.63,5.01-5.61l13.55-37.06c.72-1.97.95-2.33,1.31-2.33s.6.3,1.31,2.15c.9,2.27,10.27,26.92,13.91,35.99,2.15,5.31,3.88,6.27,5.13,6.63.9.3,1.85.36,2.33.36.36,0,.66.06.66.36,0,.36-.54.48-1.19.48-.9,0-5.25,0-9.37-.12-1.13-.06-1.79-.06-1.79-.42,0-.24.18-.36.42-.42.36-.12.72-.66.36-1.61l-5.55-14.68c-.12-.24-.24-.36-.54-.36h-12.83Zm12.06-2.15c.3,0,.3-.18.24-.42l-5.67-16.11c-.3-.9-.6-.9-.9,0l-5.25,16.11c-.12.3,0,.42.18.42h11.4Z"/>
        <path class="cls-1" d="m213.28,113.45c0-6.98,4.36-11.64,9.01-14.38-2.21-3.1-2.81-5.55-2.81-8.24,0-4.72,4.83-10.98,12.83-10.98,2.57,0,5.19.48,6.68,1.19,1.25.6,1.31.96,1.31,1.79,0,2.21-.12,4.89-.36,6.45-.18,1.07-.36,1.43-.66,1.43s-.36-.24-.36-1.13c0-1.79-.42-3.58-1.85-5.07-1.43-1.55-3.4-2.63-5.97-2.63-3.58,0-7.58,2.21-7.58,7.82,0,4.66,3.22,8.53,9.43,15.28,2.03,2.21,9.37,9.07,11.28,10.68,1.67-2.27,3.04-6.27,3.04-9.91,0-.89-.24-2.03-1.13-2.92-.66-.66-1.67-.78-2.45-.9-.66-.12-1.19-.18-1.19-.48s.48-.42.96-.42c1.43,0,3.82.06,7.16.42.9.12,1.07.6,1.07,1.19,0,4.83-3.28,10.86-5.91,14.08,3.94,3.34,6.57,4.95,8.24,5.91,1.91,1.13,4.83,2.33,6.98,2.33.54,0,.96.06.96.42,0,.3-.3.42-.84.42-3.46,0-5.85.18-7.76,0-3.04-.24-5.49-1.07-10.8-5.31-1.37,1.37-5.97,6.15-14.8,6.15-10.44,0-14.5-8-14.5-13.19Zm27.81,5.85c-3.34-2.81-9.19-8.59-10.74-10.27-1.55-1.67-5.49-5.97-7.16-8.42-3.1,2.03-5.01,5.25-5.01,10.03,0,7.46,5.07,12.71,11.76,12.71,5.55,0,9.13-1.97,11.16-4.06Z"/>
        <path class="cls-1" d="m289.31,97.99c0-9.31,0-10.98-.12-12.89-.12-2.03-.6-2.98-2.57-3.4-.48-.12-1.49-.18-2.03-.18-.24,0-.48-.12-.48-.36,0-.36.3-.48.96-.48,2.69,0,6.27.18,6.74.18,1.31,0,4.78-.18,7.52-.18,7.46,0,10.15,2.51,11.1,3.4,1.31,1.25,2.98,3.94,2.98,7.82,0,7.76-6.21,13.49-14.68,13.49-.3,0-.95,0-1.25-.06-.3,0-.66-.12-.66-.42,0-.48.36-.54,1.61-.54,5.79,0,10.33-3.94,10.33-10.21,0-1.49-.18-5.49-3.34-8.71s-6.8-2.98-8.18-2.98c-1.02,0-2.03.12-2.57.36-.36.12-.48.54-.48,1.13v24.53c0,5.73,0,10.44.3,12.95.18,1.73.54,3.04,2.33,3.28.84.12,2.15.24,2.69.24.36,0,.48.18.48.36,0,.3-.3.48-.95.48-3.28,0-7.04-.18-7.34-.18-.18,0-3.94.18-5.73.18-.66,0-.95-.12-.95-.48,0-.18.12-.36.48-.36.54,0,1.25-.12,1.79-.24,1.19-.24,1.49-1.55,1.73-3.28.3-2.51.3-7.22.3-12.95v-10.5Z"/>
        <path class="cls-1" d="m326.37,97.99c0-9.31,0-10.98-.12-12.89-.12-2.03-.6-2.98-2.57-3.4-.42-.12-1.19-.12-1.73-.18-.42-.06-.78-.12-.78-.36,0-.36.3-.48.96-.48,1.37,0,2.98,0,6.74.18.42,0,12.29,0,13.67-.06,1.31-.06,2.39-.18,2.74-.36.36-.18.48-.24.66-.24s.24.24.24.54c0,.42-.36,1.13-.48,2.81-.06.9-.12,2.03-.24,3.58-.06.6-.24,1.02-.48,1.02-.36,0-.48-.3-.48-.78,0-.78-.12-1.49-.3-1.97-.42-1.37-1.67-1.97-4.3-2.21-1.02-.12-7.52-.18-8.18-.18-.24,0-.36.18-.36.6v16.47c0,.42.06.6.36.6.78,0,8.12,0,9.49-.12,1.61-.12,2.39-.3,2.98-1.01.3-.36.48-.6.72-.6.18,0,.3.12.3.48s-.3,1.37-.48,3.34c-.18,1.85-.18,3.22-.24,4.06-.06.6-.18.89-.42.89-.36,0-.42-.48-.42-.95,0-.54-.06-1.13-.24-1.67-.24-.89-.95-1.73-3.1-1.97-1.61-.18-7.52-.3-8.53-.3-.3,0-.42.18-.42.42v5.25c0,2.03-.06,8.95,0,10.21.12,2.45.48,3.76,1.97,4.36,1.02.42,2.63.54,4.95.54,1.79,0,3.76-.06,5.37-.54,1.91-.6,2.57-1.85,3.04-4.42.12-.66.24-.9.54-.9.36,0,.36.48.36.9,0,.48-.48,4.54-.78,5.79-.42,1.55-.9,1.55-3.22,1.55-4.42,0-6.39-.12-8.71-.18-2.39-.06-5.13-.18-7.46-.18-1.43,0-2.86.24-4.42.18-.66,0-.95-.12-.95-.48,0-.18.3-.3.66-.36.6-.06.95-.06,1.37-.18,1.25-.3,2.03-1.13,2.15-5.61.06-2.33.12-5.37.12-10.68v-10.5Z"/>
        <path class="cls-1" d="m361.46,97.99c0-9.31,0-10.98-.12-12.89-.12-2.03-.6-2.98-2.57-3.4-.48-.12-1.49-.18-2.03-.18-.24,0-.48-.12-.48-.36,0-.36.3-.48.96-.48,2.69,0,6.27.18,6.74.18,1.31,0,4.78-.18,7.52-.18,7.46,0,10.15,2.51,11.1,3.4,1.31,1.25,2.98,3.94,2.98,7.82,0,7.76-6.21,13.49-14.68,13.49-.3,0-.95,0-1.25-.06-.3,0-.66-.12-.66-.42,0-.48.36-.54,1.61-.54,5.79,0,10.33-3.94,10.33-10.21,0-1.49-.18-5.49-3.34-8.71-3.16-3.22-6.8-2.98-8.18-2.98-1.02,0-2.03.12-2.57.36-.36.12-.48.54-.48,1.13v24.53c0,5.73,0,10.44.3,12.95.18,1.73.54,3.04,2.33,3.28.83.12,2.15.24,2.68.24.36,0,.48.18.48.36,0,.3-.3.48-.96.48-3.28,0-7.04-.18-7.34-.18-.18,0-3.94.18-5.73.18-.66,0-.96-.12-.96-.48,0-.18.12-.36.48-.36.54,0,1.25-.12,1.79-.24,1.19-.24,1.49-1.55,1.73-3.28.3-2.51.3-7.22.3-12.95v-10.5Z"/>
        <path class="cls-1" d="m392.97,103.18c0-9.67,7.04-23.33,23.51-23.33,13.43,0,23.45,8.48,23.45,22.38s-9.43,24.41-23.81,24.41c-16.35,0-23.16-12.71-23.16-23.45Zm41.24.72c0-14.32-8.71-22.02-18.14-22.02-9.97,0-17.43,6.56-17.43,19.63,0,13.91,8.36,22.86,19.1,22.86,5.37,0,16.47-3.1,16.47-20.47Z"/>
      </g>
      <line class="cls-2" x1="2.19" y1="46.89" x2="168.42" y2="46.89"/>
      <line class="cls-2" x1="274.57" y1="46.89" x2="439.93" y2="46.89"/>
    </g>
  </g>
</svg>