<?xml version="1.0" encoding="UTF-8"?>
<svg id="Capa_2" data-name="Capa 2" xmlns="http://www.w3.org/2000/svg" viewBox="0 0 791.28 140.42">
  <defs>
    <style>
      .cls-1 {
        fill: #fff;
      }

      .cls-2 {
        fill: #7fd7c3;
      }
    </style>
  </defs>
  <g id="Capa_1-2" data-name="Capa 1">
    <g>
      <path class="cls-2" d="m147.78,140.38h7.54L90.72,15.47,98.89,0l-7.49.11-37.21,70.38c-2.71-.11-5.41-.08-8.09.07L83.63.11l-7.51.1-38,71.22c-3.11.5-6.18,1.16-9.17,2.03L67.78.21h-7.56L0,113.94l7.49.03,1.22-2.31c16.94-7.43,36.94-8.48,54.96-2.88,17.74,5.52,31.51,16.66,39.12,31.59l7.34.02c-8.06-18.05-23.84-31.53-44.49-37.94-16.96-5.27-35.58-5.08-52.23.34l3.15-5.94c19.13-8.27,43.51-7.36,63.82,2.46,17.77,8.57,30.65,23.06,36.65,41.09l6.96.02c-6.25-20.74-20.62-37.38-40.73-47.09-19.5-9.41-42.53-11.24-62.05-5.24l3.17-5.97c18.79-7.7,41.74-6.56,61.61,3.14,21.38,10.43,37.3,29.9,45.19,55.16l6.91.02c-3.07-10.5-7.44-20.11-12.95-28.63l-1.64-3.32L83.25,29.63l3.7-7,60.83,117.75ZM71.98,50.98l13.66,26.8c-7.82-3.43-16.03-5.66-24.28-6.69l10.62-20.12Zm35.36,40.42c-3.63-3.1-7.5-5.89-11.58-8.36l-19.99-39.24,3.7-7.01,27.87,54.61Z"/>
      <g>
        <g>
          <path class="cls-1" d="m203.09,10.06h17.17l38.64,79.89h-17.02l-6.39-13.44h-46.67l-6.19,13.44h-17.07L203.09,10.06Zm26.02,53.11l-17.28-36.29-16.82,36.29h34.09Z"/>
          <path class="cls-1" d="m277.31,10.06h16.2v44.01c0,3.61.49,6.82,1.48,9.63.99,2.81,2.46,5.19,4.42,7.13,1.96,1.94,4.39,3.42,7.28,4.42,2.9,1.01,6.27,1.51,10.12,1.51s7.18-.5,10.09-1.51c2.91-1,5.35-2.48,7.31-4.42,1.96-1.94,3.43-4.32,4.42-7.13.99-2.81,1.48-6.02,1.48-9.63V10.06h16.2v45.95c0,5.25-.89,10.02-2.66,14.31-1.77,4.29-4.34,7.97-7.72,11.04-3.38,3.07-7.51,5.44-12.4,7.1-4.89,1.67-10.47,2.5-16.74,2.5s-11.85-.83-16.74-2.5c-4.89-1.67-9.02-4.04-12.4-7.1-3.37-3.07-5.95-6.75-7.72-11.04-1.77-4.29-2.66-9.06-2.66-14.31V10.06Z"/>
          <path class="cls-1" d="m385.07,10.06h40.64c6.13,0,11.45.64,15.95,1.92s8.23,3.13,11.19,5.55c2.96,2.42,5.17,5.37,6.62,8.84,1.45,3.48,2.17,7.41,2.17,11.81,0,2.97-.36,5.78-1.07,8.46-.72,2.68-1.81,5.14-3.3,7.39-1.48,2.25-3.35,4.25-5.6,6.01-2.25,1.76-4.89,3.21-7.92,4.37l17.38,25.56h-19.83l-15.03-22.69h-.46l-24.53-.05v22.75h-16.2V10.06Zm41.05,43.14c3.07,0,5.75-.36,8.05-1.07,2.3-.72,4.22-1.72,5.78-3.02,1.55-1.29,2.71-2.87,3.48-4.73.77-1.86,1.15-3.93,1.15-6.21,0-4.46-1.53-7.91-4.6-10.35-3.07-2.44-7.68-3.66-13.85-3.66h-24.84v29.03h24.84Z"/>
          <path class="cls-1" d="m485.1,49.77c0-6.03,1.11-11.55,3.32-16.56,2.21-5.01,5.32-9.31,9.33-12.91,4-3.59,8.81-6.38,14.41-8.36,5.6-1.98,11.81-2.96,18.63-2.96s12.98.99,18.61,2.96c5.62,1.98,10.43,4.76,14.44,8.36,4,3.6,7.11,7.9,9.33,12.91,2.21,5.01,3.32,10.53,3.32,16.56s-1.11,11.63-3.32,16.69c-2.22,5.06-5.33,9.41-9.33,13.06-4.01,3.65-8.82,6.48-14.44,8.51-5.62,2.03-11.83,3.04-18.61,3.04s-13.03-1.01-18.63-3.04c-5.6-2.03-10.41-4.86-14.41-8.51-4-3.64-7.11-8-9.33-13.06-2.21-5.06-3.32-10.62-3.32-16.69m16.2,0c0,4.12.74,7.84,2.22,11.14,1.48,3.31,3.54,6.13,6.18,8.46,2.64,2.34,5.76,4.13,9.35,5.39,3.59,1.26,7.5,1.89,11.73,1.89s8.13-.63,11.73-1.89c3.59-1.26,6.7-3.06,9.33-5.39,2.62-2.33,4.68-5.15,6.19-8.46,1.5-3.3,2.25-7.02,2.25-11.14s-.75-7.82-2.25-11.09c-1.5-3.27-3.56-6.04-6.19-8.31-2.63-2.27-5.73-3.99-9.33-5.19-3.6-1.19-7.51-1.79-11.73-1.79s-8.14.6-11.73,1.79c-3.6,1.19-6.71,2.92-9.35,5.19-2.64,2.27-4.7,5.03-6.18,8.31-1.48,3.27-2.22,6.97-2.22,11.09"/>
          <path class="cls-1" d="m603.49,10.06h40.64c6.13,0,11.45.64,15.95,1.92,4.5,1.28,8.23,3.13,11.19,5.55,2.96,2.42,5.17,5.37,6.62,8.84,1.45,3.48,2.17,7.41,2.17,11.81,0,2.97-.36,5.78-1.07,8.46-.72,2.68-1.81,5.14-3.3,7.39-1.48,2.25-3.35,4.25-5.6,6.01-2.25,1.76-4.89,3.21-7.92,4.37l17.38,25.56h-19.83l-15.03-22.69h-.46l-24.53-.05v22.75h-16.2V10.06Zm41.05,43.14c3.07,0,5.75-.36,8.05-1.07,2.3-.72,4.22-1.72,5.78-3.02,1.55-1.29,2.71-2.87,3.48-4.73.77-1.86,1.15-3.93,1.15-6.21,0-4.46-1.53-7.91-4.6-10.35-3.07-2.44-7.68-3.66-13.85-3.66h-24.84v29.03h24.84Z"/>
          <path class="cls-1" d="m735.47,10.06h17.17l38.64,79.89h-17.02l-6.39-13.44h-46.67l-6.19,13.44h-17.07l37.52-79.89Zm26.02,53.11l-17.28-36.29-16.82,36.29h34.09Z"/>
        </g>
        <g>
          <path class="cls-1" d="m259.53,115.93l-.82,1.81c-1.52-1.01-3.31-1.42-4.66-1.42-2.17,0-3.6.82-3.6,2.25,0,4.35,9.52,2.08,9.49,8.21,0,2.83-2.49,4.64-6.11,4.64-2.46,0-4.88-1.06-6.47-2.58l.87-1.74c1.57,1.52,3.72,2.39,5.63,2.39,2.44,0,3.96-.99,3.96-2.61.02-4.44-9.49-2.08-9.49-8.14,0-2.66,2.34-4.37,5.84-4.37,1.96,0,3.96.63,5.36,1.57Z"/>
          <path class="cls-1" d="m282.75,116.29v5.56h8.53v1.86h-8.53v5.8h9.85v1.84h-11.79v-16.91h11.47v1.86h-9.54Z"/>
          <path class="cls-1" d="m326.96,123.08v6.13c-1.67,1.33-4.01,2.22-6.28,2.22-4.9,0-8.82-3.79-8.82-8.55s3.94-8.5,8.91-8.5c2.34,0,4.61.89,6.23,2.32l-1.11,1.45c-1.38-1.23-3.24-1.96-5.12-1.96-3.86,0-6.96,2.97-6.96,6.69s3.11,6.71,6.98,6.71c1.52,0,3.14-.53,4.44-1.42v-5.1h1.72Z"/>
          <path class="cls-1" d="m362.38,124.38c0,4.4-2.66,7.05-7.08,7.05s-7.13-2.66-7.13-7.05v-9.95h1.93v9.95c0,3.28,1.98,5.19,5.19,5.19s5.14-1.91,5.14-5.19v-9.95h1.93v9.95Z"/>
          <path class="cls-1" d="m391.59,125.95c-.36.02-.75.05-1.13.05h-4.49v5.34h-1.93v-16.91h6.42c4.23,0,6.67,2.08,6.67,5.68,0,2.8-1.35,4.68-3.79,5.48l3.96,5.75h-2.2l-3.5-5.39Zm-1.13-1.81c3.07,0,4.81-1.35,4.81-3.99s-1.74-3.86-4.81-3.86h-4.49v7.85h4.49Z"/>
          <path class="cls-1" d="m434.52,122.89c0,4.76-3.91,8.55-8.84,8.55s-8.86-3.79-8.86-8.55,3.91-8.5,8.86-8.5,8.84,3.74,8.84,8.5Zm-15.75,0c0,3.72,3.14,6.69,6.91,6.69s6.86-2.97,6.86-6.69-3.09-6.67-6.86-6.67-6.91,2.95-6.91,6.67Z"/>
          <path class="cls-1" d="m465.35,115.93l-.82,1.81c-1.52-1.01-3.31-1.42-4.66-1.42-2.17,0-3.6.82-3.6,2.25,0,4.35,9.52,2.08,9.49,8.21,0,2.83-2.49,4.64-6.11,4.64-2.46,0-4.88-1.06-6.47-2.58l.87-1.74c1.57,1.52,3.72,2.39,5.63,2.39,2.44,0,3.96-.99,3.96-2.61.02-4.44-9.49-2.08-9.49-8.14,0-2.66,2.34-4.37,5.84-4.37,1.96,0,3.96.63,5.36,1.57Z"/>
          <path class="cls-1" d="m517,114.43c4.93,0,8.69,3.65,8.69,8.45s-3.79,8.45-8.77,8.45h-6.76v-16.91h6.83Zm-4.9,15.07h4.93c3.77,0,6.71-2.83,6.71-6.59s-2.99-6.62-6.79-6.62h-4.85v13.21Z"/>
          <path class="cls-1" d="m548.07,116.29v5.56h8.53v1.86h-8.53v5.8h9.85v1.84h-11.79v-16.91h11.47v1.86h-9.54Z"/>
          <path class="cls-1" d="m606.75,131.34l-6.86-16.91h2.08l5.82,14.66,5.84-14.66h2.03l-6.91,16.91h-2Z"/>
          <path class="cls-1" d="m635.28,131.34v-16.91h1.93v16.91h-1.93Z"/>
          <path class="cls-1" d="m666.09,114.43c4.93,0,8.69,3.65,8.69,8.45s-3.79,8.45-8.77,8.45h-6.76v-16.91h6.83Zm-4.9,15.07h4.93c3.77,0,6.71-2.83,6.71-6.59s-2.99-6.62-6.79-6.62h-4.85v13.21Z"/>
          <path class="cls-1" d="m696.29,127.06l-1.88,4.27h-2.05l7.58-16.91h2l7.56,16.91h-2.1l-1.88-4.27h-9.23Zm4.59-10.43l-3.77,8.57h7.58l-3.82-8.57Z"/>
        </g>
      </g>
    </g>
  </g>
</svg>