<?xml version="1.0" encoding="UTF-8"?>
<svg id="Capa_2" data-name="Capa 2" xmlns="http://www.w3.org/2000/svg" viewBox="0 0 523 142.5">
  <defs>
    <style>
      .cls-1 {
        fill: #ce5d1c;
      }

      .cls-2 {
        fill: #222221;
      }
    </style>
  </defs>
  <g id="Capa_1-2" data-name="Capa 1">
    <g>
      <path class="cls-1" d="m95,23.75c0,13.12-10.63,23.75-23.75,23.75s-23.75-10.63-23.75-23.75S58.13,0,71.25,0s23.75,10.63,23.75,23.75"/>
      <path class="cls-1" d="m142.5,23.75c0,13.12-10.63,23.75-23.75,23.75s-23.75-10.63-23.75-23.75S105.63,0,118.75,0s23.75,10.63,23.75,23.75"/>
      <path class="cls-1" d="m95,118.75c0,13.12-10.63,23.75-23.75,23.75s-23.75-10.63-23.75-23.75,10.63-23.75,23.75-23.75,23.75,10.63,23.75,23.75"/>
      <path class="cls-1" d="m142.5,118.75c0,13.12-10.63,23.75-23.75,23.75s-23.75-10.63-23.75-23.75,10.63-23.75,23.75-23.75,23.75,10.63,23.75,23.75"/>
      <path class="cls-1" d="m47.5,71.25c0,13.12-10.63,23.75-23.75,23.75S0,84.37,0,71.25s10.63-23.75,23.75-23.75,23.75,10.63,23.75,23.75"/>
      <path class="cls-1" d="m95,71.25c0,13.12-10.63,23.75-23.75,23.75s-23.75-10.63-23.75-23.75,10.63-23.75,23.75-23.75,23.75,10.63,23.75,23.75"/>
      <path class="cls-2" d="m318.73,51.44c-2.57,0-4.99.47-7.25,1.42-2.26.95-4.32,2.33-6.16,4.15v-4.73h-7.27l-.02,51.98h7.19l.02-18.07c1.94,1.89,4.06,3.31,6.38,4.26,2.31.95,4.83,1.42,7.54,1.42,3.05,0,5.77-.49,8.16-1.46,2.38-.97,4.58-2.47,6.6-4.51,1.86-1.89,3.29-4.06,4.28-6.48,1-2.43,1.49-4.99,1.49-7.68,0-5.82-1.99-10.66-5.96-14.52-3.97-3.86-8.98-5.79-15.01-5.79m9.45,29.79c-2.69,2.58-5.91,3.87-9.67,3.87s-6.85-1.34-9.5-4.03c-2.65-2.69-3.98-5.94-3.98-9.75,0-3.55,1.35-6.65,4.05-9.31,2.7-2.65,5.82-3.98,9.36-3.98,3.85,0,7.11,1.32,9.78,3.96,2.66,2.64,4,5.92,4,9.82,0,3.7-1.34,6.83-4.04,9.42m-105.16-24.21c-2.01-1.96-4.26-3.45-6.74-4.45-2.48-1-5.18-1.51-8.09-1.51-2.71,0-5.33.56-7.85,1.69-2.52,1.12-4.79,2.72-6.8,4.8-1.87,1.89-3.28,4.03-4.24,6.4-.96,2.37-1.44,4.93-1.44,7.66s.53,5.18,1.58,7.7c1.05,2.52,2.51,4.72,4.38,6.61,1.96,1.99,4.18,3.49,6.65,4.51,2.47,1.01,5.17,1.53,8.11,1.53s5.56-.56,8.09-1.67c2.53-1.11,4.82-2.74,6.85-4.89,1.77-1.87,3.14-4.05,4.12-6.56.98-2.5,1.47-5.07,1.47-7.72s-.53-5.11-1.58-7.54c-1.05-2.43-2.56-4.62-4.53-6.56m-5.11,24.14c-2.51,2.58-5.62,3.88-9.32,3.88s-6.94-1.29-9.47-3.86c-2.53-2.57-3.8-5.79-3.8-9.64s1.27-7.11,3.8-9.7c2.53-2.58,5.66-3.87,9.39-3.87s6.89,1.27,9.4,3.82c2.51,2.55,3.76,5.77,3.76,9.68s-1.26,7.12-3.76,9.7m-54.76-23.13c2.76,0,5.14.59,7.12,1.75,1.99,1.17,3.61,2.93,4.87,5.29h7.89c-1.53-4.42-3.98-7.85-7.34-10.29-3.37-2.44-7.35-3.67-11.92-3.67-2.93,0-5.68.55-8.25,1.65-2.57,1.1-4.89,2.71-6.94,4.84-1.87,1.94-3.28,4.09-4.24,6.43-.96,2.35-1.43,4.87-1.43,7.56s.53,5.18,1.58,7.7c1.05,2.52,2.51,4.72,4.38,6.61,1.96,1.99,4.16,3.48,6.58,4.47,2.42.99,5.13,1.49,8.11,1.49,4.72,0,8.74-1.2,12.03-3.59,3.3-2.4,5.78-5.92,7.45-10.57h-7.89c-1.14,2.34-2.73,4.14-4.76,5.41-2.04,1.27-4.31,1.91-6.83,1.91-3.76,0-6.9-1.29-9.42-3.86-2.52-2.57-3.78-5.79-3.78-9.64s1.24-7.01,3.72-9.61c2.48-2.6,5.51-3.89,9.07-3.89m112.43-6.38c-2.94,0-5.43.55-7.47,1.65-2.04,1.1-3.68,2.77-4.92,5.02-1.23-2.29-2.81-3.98-4.75-5.05-1.94-1.07-4.35-1.61-7.25-1.61-2.15,0-4.06.43-5.74,1.28-1.68.85-3.18,2.14-4.51,3.87v-4.52h-6.4v38.57h6.83v-19.74c0-4.49.74-7.8,2.21-9.94,1.47-2.14,3.75-3.21,6.84-3.21s5.18,1.06,6.55,3.19c1.37,2.13,2.06,5.54,2.06,10.24v19.46h6.98v-20.16c0-4.6.68-7.88,2.04-9.82,1.36-1.94,3.6-2.91,6.72-2.91,2.68,0,4.76.91,6.26,2.73,1.5,1.83,2.25,4.38,2.25,7.68v22.48h7.23v-23.56c0-4.75-1.36-8.54-4.08-11.38-2.72-2.84-6.34-4.26-10.86-4.26m215.67,5.29c-1.89-1.89-3.99-3.3-6.29-4.24-2.3-.93-4.82-1.4-7.56-1.4-3.05,0-5.77.48-8.16,1.45-2.39.97-4.59,2.47-6.6,4.51-1.84,1.85-3.26,3.99-4.26,6.42-.99,2.43-1.48,5-1.48,7.72,0,5.82,1.98,10.67,5.96,14.53,3.97,3.87,8.96,5.8,14.98,5.8,2.57,0,4.99-.47,7.25-1.42,2.27-.95,4.32-2.34,6.16-4.19v4.74h7.27v-38.57h-7.27v4.66Zm-3.69,24.18c-2.7,2.65-5.82,3.98-9.36,3.98-3.87,0-7.15-1.32-9.83-3.96-2.68-2.64-4.01-5.91-4.01-9.82s1.34-6.86,4.01-9.43c2.68-2.57,5.91-3.86,9.69-3.86s6.86,1.35,9.54,4.05c2.68,2.7,4.02,5.94,4.02,9.73,0,3.55-1.35,6.66-4.05,9.31m30.08-28.19c-1.54.83-2.9,2.1-4.09,3.81v-4.45h-6.76v38.57h7.19v-21.46c0-3.55.7-6.13,2.09-7.73,1.39-1.6,3.7-2.52,6.93-2.75v-7.26c-2.04.02-3.82.45-5.36,1.28m-73.39,15.3c-.63-.23-1.49-.55-2.58-.95-3.88-1.38-5.82-3.14-5.82-5.29,0-1.26.43-2.32,1.29-3.17.86-.85,1.93-1.28,3.22-1.28,1.43,0,2.57.4,3.42,1.19.85.8,1.33,1.91,1.46,3.33h6.91c-.2-3.48-1.3-6.19-3.31-8.12-2.01-1.93-4.73-2.89-8.14-2.89s-6.04,1.1-8.31,3.3c-2.27,2.2-3.4,4.86-3.4,7.99,0,1.82.34,3.43,1.02,4.82.68,1.39,1.73,2.63,3.16,3.73.78.61,2.58,1.42,5.42,2.46,1.06.37,1.89.68,2.47.91,1.7.65,2.93,1.45,3.69,2.38.76.94,1.14,2.08,1.14,3.44,0,1.54-.54,2.81-1.62,3.81-1.08.99-2.46,1.49-4.13,1.49-1.77,0-3.24-.66-4.42-1.98-1.18-1.32-1.76-3-1.76-5.03h-6.76c.22,4.18,1.47,7.48,3.75,9.89,2.28,2.41,5.27,3.61,8.98,3.61s6.73-1.15,9.16-3.44c2.43-2.29,3.63-5.17,3.63-8.63,0-2.97-.64-5.34-1.94-7.12-1.3-1.78-3.47-3.26-6.52-4.45m-63.79-9.72c-1.97-1.9-3.92-3.4-5.85-4.5-1.92-1.1-3.95-1.87-6.06-2.32-3.46-.66-6.83-.52-10.13.42-3.29.94-6.18,2.61-8.66,5.01-2.09,2.02-3.63,4.25-4.62,6.71-.98,2.46-1.41,5.11-1.27,7.95.1,2.65.68,5.13,1.73,7.45,1.05,2.32,2.57,4.44,4.56,6.36,1.92,1.85,4.18,3.3,6.76,4.36,2.59,1.06,5.23,1.62,7.94,1.69,2.88.07,5.55-.38,8.02-1.34,1.96-.76,3.79-1.87,5.51-3.29v-10c0,.14,0,.21,0,.24,0-.12-.04-.65-.35-.17-1.22,1.84-1.7,2.26-3.38,3.88-2.35,2.27-5.11,3.51-8.28,3.75-3.17.23-6.15-.59-8.94-2.45l23.8-22.96-.8-.77Zm-27.43,19.16c-1.64-2.78-2.3-5.59-1.98-8.43.32-2.84,1.6-5.34,3.83-7.49,2.18-2.1,4.68-3.29,7.51-3.56,2.84-.27,5.74.41,8.7,2.05l-18.07,17.43Zm52.25-26.03c-2.32,0-4.39.4-6.2,1.21-1.81.81-3.46,2.08-4.96,3.8v-4.38h-6.91v38.57h7.2v-17.53c0-5.36.8-9.2,2.42-11.52,1.61-2.33,4.21-3.49,7.8-3.49,3.3,0,5.73.99,7.3,2.96,1.58,1.98,2.37,5.01,2.37,9.1v20.48h7.23v-21.99c0-5.54-1.4-9.79-4.2-12.76-2.8-2.97-6.82-4.45-12.05-4.45"/>
    </g>
  </g>
</svg>