<?xml version="1.0" encoding="UTF-8"?>
<svg id="Capa_2" data-name="Capa 2" xmlns="http://www.w3.org/2000/svg" viewBox="0 0 642.56 173.89">
  <defs>
    <style>
      .cls-1 {
        fill: #fff;
      }

      .cls-2 {
        fill: #00e700;
      }
    </style>
  </defs>
  <g id="Capa_1-2" data-name="Capa 1">
    <g>
      <path class="cls-1" d="m186.98,98.15c-.04-27.51,12.75-41.28,38.38-41.79,25.79-.2,38.78,11.97,38.82,36.82l.08,48.92c.03,20.78-13.08,31.28-39.49,31.79-18.76.03-30.65-8.7-35.52-26.2l22.97-.04c1.42,5.94,6.27,8.74,14.86,8.73,10.94-.02,16.56-6.44,16.54-19.25,0,0,0,.16-.01-8.44-5.3,8.14-13.26,12.21-23.58,12.23-22.03.04-33-14.32-33.05-42.77m56.58.53c.13-16.72-5.67-25-17.54-24.98-11.88.02-17.65,8.31-17.62,25.03.49,15.94,6.13,23.9,17.39,23.88,11.25-.02,17.18-8,17.78-23.94"/>
      <path class="cls-1" d="m342.17,98.21c.05,28.44-12.59,42.84-37.6,42.88-25.01.04-37.53-14.32-37.58-42.76-.05-28.76,12.43-43,37.44-43.04,25.01-.04,37.69,14.16,37.74,42.92m-54.08.09c.18,16.1,5.67,24.22,16.29,24.2,10.63-.02,15.93-8.47,16.06-24.88-.03-16.1-5.35-24.06-15.98-24.04-10.94.02-16.4,8.31-16.37,24.72"/>
      <path class="cls-1" d="m366.8,161.16c.01,6.88-3.42,10.32-10.3,10.33l-10.47.02-.13-79.08c1.05-24.7,13.85-36.91,38.7-36.95,25.63-.04,38.47,13.85,38.51,41.67.05,28.13-10.87,42.68-32.9,43.5-10.32.02-18.14-4.19-23.47-12.78l.05,33.29Zm17.6-39.1c11.25-.02,17.02-8,17.46-23.94-.03-16.72-5.98-25-17.86-24.98-11.88.02-17.49,8.31-17.31,25.03.65,15.94,6.45,23.9,17.7,23.88"/>
      <path class="cls-1" d="m447.94,77.88l-20.79.03c2.48-15.32,13.25-22.84,32.31-22.87,22.82-.04,34.39,7.45,34.89,22.76l.05,28.13c.04,22.82-13.7,33-36.05,34.6-19.85,1.59-33.61-7.6-33.64-25.89.44-19.85,14.81-25.19,35.75-27.25,8.9-1.11,13.43-3.77,13.43-8.3-.47-4.69-4.86-7.03-13.45-7.01-7.34.01-11.41,1.89-12.49,5.8m26.3,27.15v-7.66c-4.85,2.04-10.48,3.77-16.57,5.03-8.28,1.57-12.49,5.49-12.48,11.59.48,6.56,3.93,9.68,10.49,9.67,11.56-.02,18.59-6.91,18.57-18.63"/>
      <path class="cls-1" d="m534.28,123.85c8.75-.01,13.12-2.52,13.11-7.84,0-4.22-7.2-7.64-21.43-10.12-18.29-3.25-27.68-11.37-27.86-24.34-.03-17.82,14.02-26.28,32.93-26.62,10.63-.02,19.07,2.31,25.33,6.99,6.1,4.84,9.4,11.55,9.88,20.15l-13.13.02c-4.84-.15-7.97-1.86-9.23-5.14-1.41-3.59-5.63-5.62-12.51-5.61-8.13.01-12.19,2.21-12.18,6.43,0,4.22,5.33,7.49,16.11,9.51,14.07,2.79,23.3,6.37,27.84,10.58,3.91,4.06,5.8,9.06,5.81,14.68.03,20.32-15.89,27.85-37.78,27.88-11.56.02-20.32-2.47-25.95-7.3-6.26-4.68-9.4-11.86-9.41-21.4l21.26-.03c.48,9.06,7.05,12.18,17.21,12.16"/>
      <path class="cls-1" d="m607.89,123.73c8.75-.01,13.12-2.52,13.11-7.84,0-4.22-7.2-7.64-21.43-10.12-18.29-3.25-27.68-11.37-27.86-24.34-.03-17.82,14.02-26.28,32.93-26.62,10.63-.02,19.07,2.31,25.33,6.99,6.1,4.83,9.39,11.55,9.88,20.14l-13.13.02c-4.84-.15-7.97-1.86-9.23-5.14-1.41-3.59-5.63-5.62-12.51-5.61-8.13.01-12.19,2.21-12.18,6.43,0,4.22,5.33,7.49,16.11,9.51,14.07,2.79,23.3,6.37,27.84,10.58,3.91,4.06,5.8,9.06,5.81,14.68.03,20.32-15.9,27.84-37.78,27.88-11.57.02-20.32-2.47-25.96-7.3-6.26-4.68-9.4-11.86-9.41-21.4l21.26-.03c.48,9.06,7.05,12.18,17.21,12.16"/>
      <path class="cls-2" d="m108.1,53.75l-29.29,29.29h22c1.54,0,2.78,1.24,2.78,2.78v14.65c0,1.72-1.4,3.12-3.12,3.12h-55.8c-1.66,0-3.01-1.35-3.01-3.01v-55.92c0-1.66,1.34-3,3-3h14.45c1.68,0,3.04,1.36,3.04,3.05v21.54L128.41,0H0v145.25h145.25V53.75h-37.15Z"/>
    </g>
  </g>
</svg>