<?xml version="1.0" encoding="UTF-8"?>
<svg id="Capa_2" data-name="Capa 2" xmlns="http://www.w3.org/2000/svg" viewBox="0 0 750.48 199.23">
  <defs>
    <style>
      .cls-1 {
        fill: #fff;
      }

      .cls-1, .cls-2, .cls-3 {
        stroke: #f4d0c2;
      }

      .cls-1, .cls-2, .cls-3, .cls-4 {
        stroke-width: 2px;
      }

      .cls-1, .cls-3, .cls-4 {
        stroke-linecap: round;
        stroke-linejoin: round;
      }

      .cls-2 {
        stroke-miterlimit: 10;
      }

      .cls-2, .cls-5 {
        fill: #f4d0c2;
      }

      .cls-3, .cls-4 {
        fill: none;
      }

      .cls-4 {
        stroke: #fff;
      }
    </style>
  </defs>
  <g id="Capa_1-2" data-name="Capa 1">
    <g>
      <g>
        <path class="cls-5" d="m28.18,22.41c.48-4.46,1.65-7.64,3.49-9.53,1.84-1.89,4.85-2.84,9.02-2.84,4.75,0,8.01,1.6,9.75,4.8,1.75,3.2,2.62,8.42,2.62,15.65s-1.37,12.66-4.11,15.86c-2.74,3.2-6.61,4.8-11.61,4.8-2.43,0-4.51-.3-6.26-.91-1.75-.61-3.3-1.26-4.66-1.96s-2.62-1.36-3.78-1.97c-1.16-.61-2.4-.91-3.71-.91-1.07,0-1.87.17-2.4.51-.54.34-.8.83-.8,1.46,0,.39.04.78.11,1.16s.11.68.11.87c0,.48-.16.84-.47,1.06-.32.22-.72.33-1.2.33s-.89-.13-1.2-.4-.47-.59-.47-.98c0-.19.04-.98.11-2.36.07-1.38.13-3.13.18-5.24.05-2.11.11-4.52.18-7.24.07-2.72.11-5.51.11-8.37s-.01-5.56-.04-8.52c-.02-2.96-.08-5.97-.18-9.02-.05-1.26-.18-2.18-.4-2.77s-.69-.87-1.42-.87c-.19,0-.51.03-.95.07-.44.05-.75.07-.95.07-.48,0-.84-.11-1.06-.33s-.33-.64-.33-1.27c0-.53.15-.92.44-1.16.29-.24.65-.36,1.09-.36,3.98,0,7.29-.34,9.93-1.02,2.64-.68,5.11-1.02,7.39-1.02.87,0,1.46.22,1.75.65s.44,1.09.44,1.96c0,1.12-.15,2.41-.44,3.89-.29,1.48-.62,3.07-.98,4.77-.36,1.7-.69,3.48-.98,5.35s-.44,3.72-.44,5.57c0,.34.08.61.25.8.17.19.42.29.76.29.39,0,.65-.09.8-.25.15-.17.24-.38.29-.62Zm4.51,25.11c.87,0,1.61-.22,2.22-.65.61-.44,1.08-1.3,1.42-2.58.34-1.28.59-3.12.76-5.49.17-2.38.25-5.48.25-9.31s-.25-6.33-.76-7.79c-.51-1.46-1.47-2.18-2.87-2.18-1.5,0-2.69.8-3.57,2.4-.87,1.6-1.31,4.27-1.31,8.01v10.04c0,2.38.27,4.23.8,5.57.53,1.34,1.55,2,3.06,2Z"/>
        <path class="cls-5" d="m95.06,33.84c0,6.36-1.37,10.94-4.11,13.75-2.74,2.81-7.44,4.22-14.08,4.22-2.67,0-5.23-.32-7.68-.95-2.45-.63-4.6-1.71-6.44-3.24-1.85-1.53-3.32-3.58-4.44-6.15-1.12-2.57-1.67-5.8-1.67-9.68s.52-7.37,1.56-10.19c1.04-2.81,2.48-5.07,4.29-6.77,1.82-1.7,4-2.94,6.55-3.71,2.55-.77,5.3-1.16,8.26-1.16,3.35,0,6.14.36,8.37,1.09,2.23.73,4.01,1.7,5.35,2.91,1.33,1.21,2.28,2.65,2.84,4.29.56,1.65.84,3.4.84,5.24,0,1.36-.19,2.59-.58,3.71-.39,1.12-1.13,2.06-2.22,2.84-1.09.78-2.62,1.38-4.59,1.82s-4.5.65-7.6.65c-2.23,0-3.93.21-5.09.62-1.16.41-1.75,1.25-1.75,2.51,0,1.5.72,2.68,2.15,3.53,1.43.85,3.65,1.27,6.66,1.27,1.46,0,2.86-.12,4.22-.36,1.36-.24,2.54-.62,3.53-1.13s1.79-1.19,2.4-2.04c.61-.85.91-1.88.91-3.09,0-.48.12-.84.36-1.06.24-.22.51-.33.8-.33.34,0,.62.11.84.33s.33.57.33,1.06Zm-17.68-20.81c-1.89,0-3.23.96-4,2.88-.78,1.92-1.16,4.96-1.16,9.13,0,.78.02,1.48.07,2.11.05.63.1,1.12.15,1.46.15.58.41.97.8,1.16.39.19.83.29,1.31.29s1.12-.12,1.89-.36c.77-.24,1.5-.75,2.18-1.53.68-.78,1.27-1.88,1.78-3.31.51-1.43.76-3.34.76-5.71,0-2.04-.29-3.57-.87-4.59-.58-1.02-1.55-1.53-2.91-1.53Z"/>
      </g>
      <path class="cls-5" d="m106.45,150.4c0,7.03.15,12.56.44,16.6.29,4.04.44,6.82.44,8.34,0,1.17-.38,2.08-1.14,2.72-.76.64-1.73.97-2.9.97-.94,0-1.82-.32-2.64-.97-.82-.64-1.23-1.55-1.23-2.72,0-.47.06-1.14.18-2.02.11-.88.18-1.9.18-3.07,0-1.52-.65-2.66-1.93-3.43-1.29-.76-3.16-1.14-5.62-1.14-3.98,0-7.44.7-10.36,2.11-2.93,1.4-6,2.99-9.22,4.74-3.22,1.76-7.03,3.34-11.42,4.74-4.39,1.4-9.92,2.11-16.6,2.11-5.97,0-11.65-.76-17.04-2.28-5.39-1.52-10.13-4.24-14.23-8.17-4.1-3.92-7.35-9.37-9.75-16.34-2.4-6.97-3.6-15.84-3.6-26.61,0-19.79,4.54-35.16,13.61-46.11,9.07-10.95,22.81-16.42,41.19-16.42,5.5,0,10.25.59,14.23,1.76,3.98,1.17,7.49,2.49,10.54,3.95,3.04,1.47,5.8,2.78,8.26,3.95,2.46,1.17,4.98,1.76,7.55,1.76,1.29,0,2.49-.32,3.6-.97,1.11-.64,1.67-1.73,1.67-3.25,0-.82-.09-1.64-.26-2.46-.18-.82-.26-1.34-.26-1.58,0-1.29.32-2.22.97-2.81.64-.58,1.55-.88,2.72-.88.94,0,1.76.29,2.46.88.7.59,1.05,1.52,1.05,2.81,0,2.23-.15,5.59-.44,10.1-.29,4.51-.5,8.76-.61,12.74-.12,2.58-.09,5.27.09,8.08.18,2.81.26,5.15.26,7.03s-.32,3.4-.97,4.57c-.65,1.17-2.26,1.82-4.83,1.93-9.49,0-16.78-2.52-21.87-7.55-5.09-5.03-9.11-11.01-12.03-17.92-1.99-4.92-3.86-8.66-5.62-11.24-1.76-2.57-4.28-3.86-7.55-3.86-3.98,0-7,3.46-9.05,10.36-2.05,6.91-3.07,19.21-3.07,36.89s.99,30.01,2.99,38.03c1.99,8.02,5.8,12.03,11.42,12.03,4.33,0,7.88-1.81,10.63-5.45,2.75-3.63,4.13-9.84,4.13-18.62,0-6.91-.56-11.53-1.67-13.88-1.11-2.34-3.02-3.51-5.71-3.51-.7,0-1.96.12-3.78.35-1.82.24-3.07.35-3.78.35-1.29,0-2.2-.47-2.72-1.4-.53-.94-.79-1.81-.79-2.64,0-.94.32-1.81.97-2.64.64-.82,1.55-1.23,2.72-1.23,3.98,0,9.07.18,15.28.53,6.21.35,12.06.53,17.57.53,2.57,0,5.33-.06,8.26-.18,2.93-.12,5.77-.2,8.52-.26,2.75-.06,5.21-.15,7.38-.26,2.17-.11,3.72-.18,4.66-.18.7,0,1.38.29,2.02.88.64.59.97,1.47.97,2.64s-.26,2.08-.79,2.72c-.53.65-1.26.97-2.2.97-.47,0-1.03-.03-1.67-.09-.65-.06-1.2-.09-1.67-.09-1.64,0-2.96.26-3.95.79-1,.53-1.79,1.64-2.37,3.34-.59,1.7-1,4.16-1.23,7.38-.24,3.22-.35,7.41-.35,12.56Z"/>
      <path class="cls-5" d="m128.76,159.36c.23-5.27.41-10.48.53-15.63.11-5.15.18-10.19.18-15.11,0-5.97-.06-11.65-.18-17.04-.12-5.38-.29-10.36-.53-14.93-.12-3.63-.38-5.97-.79-7.03-.41-1.05-1.32-1.58-2.72-1.58-.82,0-1.47.03-1.93.09-.47.06-.88.09-1.23.09-1.41,0-2.31-.38-2.72-1.14-.41-.76-.62-1.55-.62-2.37,0-.94.21-1.78.62-2.55.41-.76,1.32-1.14,2.72-1.14,2.69,0,5.56.09,8.61.26,3.04.18,6.26.26,9.66.26,2.69,0,5.33-.15,7.9-.44,2.57-.29,5.33-.44,8.26-.44,2.22,0,3.63.61,4.22,1.85.58,1.23.88,2.72.88,4.48,0,5.51-.41,10.66-1.23,15.46-.82,4.8-1.23,10.07-1.23,15.81,0,1.64.23,2.81.7,3.51.47.7,1.05,1.05,1.76,1.05.82,0,1.43-.44,1.84-1.32.41-.88.85-3.07,1.32-6.59,1.17-11.83,3.63-20.73,7.38-26.7,3.75-5.97,8.78-8.96,15.11-8.96,4.33,0,7.96,1.64,10.89,4.92,2.93,3.28,4.39,9.37,4.39,18.27,0,3.75-.24,7.29-.7,10.63-.47,3.34-1.23,6.27-2.28,8.78-1.05,2.52-2.49,4.51-4.3,5.97-1.82,1.47-4.07,2.2-6.76,2.2-3.28,0-5.88-.82-7.82-2.46-1.93-1.64-3.37-3.92-4.3-6.85-.59-1.52-1.11-2.75-1.58-3.69-.47-.94-1.29-1.41-2.46-1.41-1.64,0-3.13,2.34-4.48,7.03-1.35,4.68-2.02,13-2.02,24.94,0,4.8.15,8.67.44,11.59.29,2.93.88,5.15,1.76,6.68.88,1.52,2.14,2.55,3.78,3.07,1.64.53,3.75.79,6.32.79,1.87,0,3.48-.12,4.83-.35,1.34-.23,2.37-.35,3.07-.35,1.17,0,2.14.29,2.9.88.76.59,1.14,1.58,1.14,2.99,0,.94-.38,1.85-1.14,2.72-.76.88-1.73,1.32-2.9,1.32-1.64,0-4.13-.03-7.47-.09-3.34-.06-6.94-.12-10.8-.18-3.86-.06-7.79-.12-11.77-.18-3.98-.06-7.38-.09-10.19-.09-4.1,0-8.08.03-11.95.09-3.86.06-7.5.15-10.89.26-1.17,0-1.99-.41-2.46-1.23-.47-.82-.7-1.64-.7-2.46,0-.94.23-1.78.7-2.55.47-.76,1.29-1.14,2.46-1.14.12,0,.55.06,1.32.18.76.12,1.2.18,1.32.18,1.17,0,1.96-1.14,2.37-3.43.41-2.28.67-4.59.79-6.94Z"/>
      <path class="cls-5" d="m256.64,79.26c8.55,0,15.49.76,20.82,2.28,5.33,1.52,9.46,3.69,12.38,6.5,2.93,2.81,4.89,6.21,5.89,10.19.99,3.98,1.49,8.37,1.49,13.17,0,3.4-.03,6.82-.09,10.28-.06,3.46-.15,6.68-.26,9.66-.12,2.99-.21,5.68-.26,8.08-.06,2.4-.09,4.19-.09,5.36,0,2.7.35,4.74,1.05,6.15.7,1.4,1.93,2.11,3.69,2.11s3.01-.67,3.78-2.02c.76-1.34,1.14-3.07,1.14-5.18,0-1.87-.41-4.22-1.23-7.03-.82-2.81-1.23-5.03-1.23-6.68,0-1.17.29-2.14.88-2.9.58-.76,1.46-1.14,2.63-1.14,1.87,0,3.1,1.11,3.69,3.34.58,2.23.88,6.5.88,12.82,0,12.88-1.61,21.81-4.83,26.79-3.22,4.98-9.4,7.47-18.53,7.47-4.33,0-7.82-.61-10.45-1.84-2.63-1.23-4.69-2.84-6.15-4.83-1.47-1.99-2.46-4.33-2.99-7.03-.53-2.69-.97-5.5-1.32-8.43-.12-1.17-.41-2.05-.88-2.64-.47-.58-1.05-.88-1.76-.88-.82,0-1.44.29-1.84.88-.41.59-.68,1.47-.79,2.64-.12,2.69-.79,5.39-2.02,8.08-1.23,2.69-3.05,5.09-5.45,7.2-2.4,2.11-5.48,3.81-9.22,5.09-3.75,1.29-8.2,1.93-13.35,1.93-9.49,0-16.28-2.28-20.38-6.85-4.1-4.57-6.15-10.42-6.15-17.57,0-4.8.88-8.78,2.63-11.94,1.76-3.16,4.16-5.71,7.2-7.64,3.04-1.93,6.56-3.4,10.54-4.39,3.98-.99,8.2-1.73,12.65-2.19,5.5-.58,9.92-1.41,13.26-2.46,3.34-1.05,5.85-2.46,7.55-4.22,1.7-1.76,2.81-3.95,3.34-6.59.53-2.64.79-5.82.79-9.57,0-7.03-1.88-11.83-5.62-14.4-3.75-2.57-9.08-3.86-15.99-3.86-2.46,0-4.04.35-4.74,1.05-.7.7-1.05,1.52-1.05,2.46,0,.59.29,1.2.88,1.84.58.64,1.46,1.03,2.64,1.14,3.75.59,6.53,2.08,8.34,4.48,1.81,2.4,2.72,5.48,2.72,9.22,0,5.74-2.02,9.92-6.06,12.56-4.04,2.64-9.16,3.95-15.37,3.95s-11.33-1.41-15.02-4.22-5.53-7.49-5.53-14.05c0-7.26,3.75-13.44,11.24-18.53,7.49-5.09,19.67-7.64,36.54-7.64Zm3.34,50.24c-4.8,0-9.19,1.35-13.17,4.04-3.98,2.7-5.97,6.21-5.97,10.54,0,3.28.91,5.53,2.72,6.76,1.81,1.23,3.89,1.85,6.24,1.85,3.98,0,7.41-1.58,10.28-4.74,2.87-3.16,4.3-7.26,4.3-12.3,0-1.99-.32-3.51-.97-4.57-.65-1.05-1.79-1.58-3.43-1.58Z"/>
      <path class="cls-5" d="m329.54,81.54c2.93,0,5.85-.09,8.78-.26,2.93-.18,5.86-.26,8.78-.26,2.34-.12,3.95.41,4.83,1.58.88,1.17,1.32,2.69,1.32,4.57,0,3.16-.23,6.38-.7,9.66-.47,3.28-.7,6.91-.7,10.89,0,1.05.23,1.84.7,2.37.47.53,1.06.79,1.76.79s1.32-.29,1.85-.88c.52-.58.85-1.46.96-2.63,1.41-11.24,4.36-18.85,8.87-22.84,4.51-3.98,11.15-5.97,19.94-5.97,10.77,0,18.65,3.6,23.63,10.8,4.98,7.2,7.47,20.11,7.47,38.73,0,15.93-3.05,28.14-9.13,36.63-6.09,8.49-16.46,12.74-31.09,12.74-3.86,0-6.79-.26-8.78-.79-1.99-.53-3.75-.79-5.27-.79-1.64,0-2.9.47-3.78,1.41-.88.94-1.32,2.52-1.32,4.74,0,2.93.7,5.36,2.11,7.29,1.41,1.93,3.98,2.9,7.73,2.9,1.76,0,3.75-.09,5.97-.26,2.22-.18,3.74-.26,4.57-.26,1.17,0,2.05.35,2.64,1.05.58.7.88,1.58.88,2.64,0,1.41-.35,2.4-1.06,2.99-.7.58-1.47.88-2.28.88-5.86-.12-12.5-.26-19.94-.44-7.44-.18-14.32-.26-20.64-.26-2.23,0-4.83.03-7.82.09-2.99.06-5.89.15-8.7.26-2.81.11-5.36.2-7.64.26-2.28.06-3.83.09-4.66.09s-1.58-.35-2.28-1.05c-.7-.7-1.05-1.64-1.05-2.81s.35-2.05,1.05-2.64c.7-.59,1.47-.88,2.28-.88.47,0,1.23.06,2.28.18,1.05.12,1.81.18,2.28.18,2.57,0,4.3-.68,5.18-2.02.88-1.35,1.38-3.25,1.49-5.71.12-5.04.23-10.83.35-17.39.11-6.56.18-13.47.18-20.73v-25.21c0-8.61-.12-16.78-.35-24.51-.12-3.63-.41-5.97-.88-7.03-.47-1.05-1.47-1.58-2.99-1.58-.82,0-1.47.03-1.93.09-.47.06-.88.09-1.23.09-1.41,0-2.31-.38-2.72-1.14-.41-.76-.61-1.55-.61-2.37,0-.94.21-1.78.61-2.55.41-.76,1.32-1.14,2.72-1.14,2.46,0,5.03.09,7.73.26,2.69.18,5.56.26,8.61.26Zm28.63,60.25c0,10.31.79,17.16,2.37,20.55,1.58,3.4,4.3,5.09,8.17,5.09,3.28,0,5.82-2.16,7.64-6.5,1.81-4.33,2.72-12.35,2.72-24.07,0-7.14-.18-13.03-.53-17.65-.35-4.63-.91-8.28-1.67-10.98-.76-2.69-1.73-4.54-2.9-5.53-1.17-.99-2.58-1.49-4.22-1.49-1.76,0-3.37.64-4.83,1.93-1.47,1.29-2.69,3.49-3.69,6.59-1,3.1-1.76,7.26-2.28,12.47-.53,5.21-.79,11.74-.79,19.59Z"/>
      <path class="cls-5" d="m468.49,161.46c.11,2.93.53,5.04,1.23,6.32.7,1.29,1.81,1.93,3.34,1.93.47,0,1.14-.03,2.02-.09.88-.06,1.43-.09,1.67-.09,1.05,0,1.87.38,2.46,1.14.58.76.88,1.55.88,2.37s-.29,1.64-.88,2.46c-.59.82-1.4,1.23-2.46,1.23-3.28-.11-7.55-.2-12.82-.26-5.27-.06-10.43-.09-15.46-.09-3.98,0-8.29.06-12.91.18-4.63.12-8.34.18-11.15.18-1.05,0-1.82-.41-2.28-1.23-.47-.82-.7-1.64-.7-2.46s.23-1.61.7-2.37c.47-.76,1.23-1.14,2.28-1.14.12,0,.55.03,1.32.09.76.06,1.26.09,1.49.09,1.29,0,2.11-.79,2.46-2.37.35-1.58.58-3.54.7-5.89.12-7.38.23-14.46.35-21.26.11-6.79.18-13.35.18-19.67,0-7.73-.09-15.37-.26-22.92-.18-7.55-.38-15.2-.61-22.92-.12-3.16-.44-5.33-.97-6.5-.53-1.17-1.73-1.76-3.6-1.76-.47,0-1.17.06-2.11.18-.94.12-1.64.18-2.11.18-1.17,0-2.02-.32-2.55-.97-.53-.64-.79-1.55-.79-2.72,0-1.05.32-1.96.97-2.72.64-.76,1.55-1.14,2.72-1.14,9.25,0,17.27-.82,24.07-2.46,6.79-1.64,12.53-2.46,17.21-2.46,2.34,0,3.89.5,4.65,1.49.76,1,1.14,2.67,1.14,5.01,0,2.46-.35,5.42-1.05,8.87-.7,3.46-1.47,7.18-2.28,11.15-.82,3.98-1.58,8.23-2.28,12.74-.7,4.51-1.05,9.05-1.05,13.61,0,.82.23,1.44.7,1.85.47.41,1.11.61,1.93.61.58,0,1.08-.23,1.49-.7.41-.47.67-1.05.79-1.76.82-9.95,3.54-17.21,8.17-21.78,4.62-4.57,12.03-6.85,22.22-6.85,11.12,0,18.68,2.9,22.66,8.7,3.98,5.8,5.97,14.49,5.97,26.09,0,3.05-.09,6.68-.26,10.89-.18,4.22-.41,8.49-.7,12.82-.29,4.33-.53,8.49-.7,12.47-.18,3.98-.26,7.32-.26,10.01,0,3.4.44,5.97,1.32,7.73s2.43,2.64,4.65,2.64c.23,0,.64-.03,1.23-.09.58-.06.94-.09,1.06-.09,1.05,0,1.81.38,2.28,1.14.47.76.7,1.61.7,2.55,0,.82-.24,1.58-.7,2.28-.47.7-1.23,1.05-2.28,1.05-2.93-.11-6.21-.29-9.84-.53-3.63-.23-7.26-.35-10.89-.35-2.58,0-5.24.12-7.99.35-2.75.24-5.59.41-8.52.53-3.28,0-5.51-1.29-6.68-3.86-1.17-2.57-1.76-6.91-1.76-13,0-3.86.09-7.99.26-12.38.18-4.39.32-8.72.44-13,.11-4.27.26-8.37.44-12.3.18-3.92.26-7.35.26-10.28s-.59-5.53-1.76-7.47c-1.17-1.93-3.1-2.9-5.8-2.9-3.28,0-5.86,1.44-7.73,4.3-1.87,2.87-3.05,8.52-3.51,16.95-.35,4.33-.59,8.96-.7,13.88-.12,4.92-.18,9.72-.18,14.4v5.45c0,1.76.06,3.4.18,4.92Z"/>
      <path class="cls-5" d="m694.44,122.64c0,11.24,2.49,19.62,7.47,25.12,4.98,5.51,12.38,8.26,22.22,8.26,7.03,0,11.91-1.08,14.67-3.25,2.75-2.16,4.13-4.36,4.13-6.59,0-1.29-.15-2.58-.44-3.86-.29-1.29-.44-2.34-.44-3.16,0-1.05.26-1.99.79-2.81.53-.82,1.55-1.23,3.07-1.23s2.61.47,3.25,1.41c.64.94.97,2.34.97,4.22,0,5.74-.67,10.98-2.02,15.72-1.35,4.74-3.63,8.81-6.85,12.21-3.22,3.4-7.55,6.03-13,7.9s-12.21,2.81-20.29,2.81c-7.03,0-13.65-.7-19.85-2.11-6.21-1.41-11.57-3.98-16.07-7.73-4.51-3.75-8.05-8.96-10.63-15.63-2.58-6.68-3.86-15.28-3.86-25.82,0-17.68,4.33-30.39,13-38.12,8.66-7.73,21.43-11.59,38.29-11.59,7.96,0,14.61.79,19.94,2.37,5.33,1.58,9.6,3.69,12.82,6.32,3.22,2.64,5.5,5.77,6.85,9.4,1.34,3.63,2.02,7.5,2.02,11.59,0,2.93-.38,5.83-1.14,8.7-.76,2.87-1.93,5.45-3.51,7.73-1.58,2.28-3.66,4.1-6.24,5.45-2.58,1.35-5.68,2.02-9.31,2.02-6.91,0-11.92-1.64-15.02-4.92-3.1-3.28-4.66-7.38-4.66-12.3,0-5.27,1.17-9.34,3.51-12.21,2.34-2.87,5.03-5.12,8.08-6.76,1.52-.82,2.72-1.7,3.6-2.64.88-.94,1.32-1.93,1.32-2.99,0-1.29-.85-2.37-2.55-3.25-1.7-.88-4.54-1.32-8.52-1.32-2.58,0-5.18.41-7.82,1.23-2.63.82-4.95,2.52-6.94,5.09-1.99,2.58-3.63,6.32-4.92,11.24-1.29,4.92-1.93,11.42-1.93,19.5Z"/>
      <path class="cls-2" d="m591.82,73.12c-2.06,20.91-12,47.08-32.23,54.41h0c18.46,7.37,24.07,18.05,25.77,26.7h12.93c1.7-8.65,7.3-19.34,25.77-26.7h0c-20.23-7.34-30.17-33.5-32.23-54.41Z"/>
      <rect class="cls-3" x="585.35" y="154.24" width="12.93" height="20.55"/>
      <line class="cls-4" x1="591.82" y1="95.43" x2="591.82" y2="117.73"/>
      <path class="cls-4" d="m596.07,122.82c0,2.35-1.91,4.26-4.26,4.26s-4.26-1.91-4.26-4.26c0-2.35,1.91-4.26,4.26-4.26,2.35,0,4.26,1.91,4.26,4.26Z"/>
      <circle class="cls-3" cx="650.14" cy="52.45" r="4.26"/>
      <circle class="cls-3" cx="533.48" cy="52.45" r="4.26"/>
      <path class="cls-3" d="m537.75,106.52c0-29.86,24.21-54.07,54.07-54.07,29.86,0,54.07,24.21,54.07,54.07"/>
      <line class="cls-3" x1="537.75" y1="52.45" x2="645.88" y2="52.45"/>
      <rect class="cls-1" x="587.55" y="48.19" width="8.52" height="8.52"/>
      <rect class="cls-3" x="533.48" y="106.52" width="8.52" height="8.52"/>
      <rect class="cls-3" x="641.62" y="106.52" width="8.52" height="8.52"/>
    </g>
  </g>
</svg>