<svg xmlns="http://www.w3.org/2000/svg" id="a" viewBox="0 0 130 130"><defs><style>.b{stroke:#fff}.b,.c{fill:none}.b,.c,.d,.e{stroke-linecap:round;stroke-linejoin:round;stroke-width:2px}.c,.d,.e{stroke:#35bcaf}.d{fill:#fff}.e{fill:#35bcaf}</style></defs><path class="e" d="M65,26.63c-2.06,20.91-12,47.08-32.23,54.41h0c18.46,7.37,24.07,18.05,25.77,26.7h12.93c1.7-8.65,7.3-19.34,25.77-26.7h0c-20.23-7.34-30.17-33.5-32.23-54.41Z"></path><rect class="d" x="58.54" y="107.75" width="12.93" height="20.55"></rect><line class="b" x1="65" y1="48.93" x2="65" y2="71.24"></line><path class="b" d="M69.26,76.33c0,2.35-1.91,4.26-4.26,4.26s-4.26-1.91-4.26-4.26,1.91-4.26,4.26-4.26c2.35,0,4.26,1.91,4.26,4.26Z"></path><circle class="c" cx="123.33" cy="5.96" r="4.26"></circle><circle class="c" cx="6.67" cy="5.96" r="4.26"></circle><path class="c" d="M10.93,60.03c0-29.86,24.21-54.07,54.07-54.07,29.86,0,54.07,24.21,54.07,54.07"></path><line class="c" x1="10.93" y1="5.96" x2="119.07" y2="5.96"></line><rect class="d" x="60.74" y="1.7" width="8.52" height="8.52"></rect><rect class="d" x="6.67" y="60.03" width="8.52" height="8.52"></rect><rect class="d" x="114.81" y="60.03" width="8.52" height="8.52"></rect></svg>