<?xml version="1.0" encoding="UTF-8"?>
<svg id="Capa_2" data-name="Capa 2" xmlns="http://www.w3.org/2000/svg" viewBox="0 0 935.27 158.21">
  <defs>
    <style>
      .cls-1 {
        fill: #228262;
      }
    </style>
  </defs>
  <g id="Capa_1-2" data-name="Capa 1">
    <g>
      <path class="cls-1" d="m5.35,10.79c0-1.14-.65-1.79-1.78-1.79H.08V0h10.38c3.89,0,5.52,1.7,5.52,5.52v41.3c0,1.14.65,1.78,1.78,1.78h12.58c1.14,0,1.78-.65,1.78-1.78v-3.49h9.65v8.76c0,3.89-1.62,5.52-5.52,5.52H10.87c-3.89,0-5.52-1.62-5.52-5.52V10.79Z"/>
      <path class="cls-1" d="m69.85,31.64h1.3v-.32c0-5.92-2.35-8.11-7.63-8.11-1.87,0-5.52.49-5.52,2.76v2.19h-9.57v-4.38c0-7.71,10.87-8.52,15.17-8.52,13.79,0,17.85,7.22,17.85,16.47v15.42c0,1.14.65,1.79,1.78,1.79h3.25v8.68h-9.25c-3.81,0-5.27-2.11-5.27-4.54,0-1.05.08-1.79.08-1.79h-.16s-3.16,7.3-12.49,7.3c-7.38,0-14.12-4.62-14.12-12.9,0-12.98,17.85-14.04,24.58-14.04Zm-7.95,18.9c5.52,0,9.41-5.84,9.41-10.87v-.97h-1.78c-5.35,0-13.87.73-13.87,6.49,0,2.76,2.03,5.35,6.25,5.35Z"/>
      <path class="cls-1" d="m136.79,31.64h1.3v-.32c0-5.92-2.35-8.11-7.63-8.11-1.87,0-5.52.49-5.52,2.76v2.19h-9.57v-4.38c0-7.71,10.87-8.52,15.17-8.52,13.79,0,17.85,7.22,17.85,16.47v15.42c0,1.14.65,1.79,1.78,1.79h3.25v8.68h-9.25c-3.81,0-5.27-2.11-5.27-4.54,0-1.05.08-1.79.08-1.79h-.16s-3.16,7.3-12.49,7.3c-7.38,0-14.12-4.62-14.12-12.9,0-12.98,17.85-14.04,24.58-14.04Zm-7.95,18.9c5.52,0,9.41-5.84,9.41-10.87v-.97h-1.78c-5.35,0-13.87.73-13.87,6.49,0,2.76,2.03,5.35,6.25,5.35Z"/>
      <path class="cls-1" d="m175.89,15.25c9.57,0,12.74,5.84,12.74,5.84h.16v-1.05c0-1.87,1.3-3.81,4.54-3.81h9.57v8.76h-3.16c-1.05,0-1.78.57-1.78,1.62v28.48c0,14.2-11.03,19.55-21.82,19.55-5.19,0-10.71-1.46-14.69-3.57l3.16-8.11s5.11,2.76,11.44,2.76,11.68-2.68,11.68-10.14v-1.95c0-.97.08-2.19.08-2.19h-.16c-2.43,3.49-6,5.35-11.52,5.35-11.85,0-18.58-9.57-18.58-20.93s6.41-20.61,18.34-20.61Zm12.09,20.69c0-9.41-4.71-11.93-10.3-11.93-6.25,0-9.65,4.54-9.65,11.52s3.65,12.58,10.3,12.58c4.95,0,9.65-2.84,9.65-12.17Z"/>
      <path class="cls-1" d="m211.18,26.77c0-1.22-.65-1.78-1.79-1.78h-3.25v-8.76h9.82c3.81,0,5.44,1.7,5.44,5.44v19.07c0,5.03,1.3,8.44,6.41,8.44,7.46,0,11.6-6.57,11.6-13.96v-18.98h10.3v30.91c0,1.14.65,1.79,1.78,1.79h3.25v8.68h-9.49c-3.57,0-5.44-1.7-5.44-4.62v-1.14c0-.97.08-1.87.08-1.87h-.16c-1.95,4.3-7.14,8.6-14.28,8.6-8.84,0-14.28-4.46-14.28-15.74v-16.06Z"/>
      <path class="cls-1" d="m277.79,15.25c9.01,0,11.93,5.03,11.93,5.03h.16s-.08-1.05-.08-2.43v-7.3c0-1.22-.65-1.79-1.78-1.79h-3.25V0h9.82c3.81,0,5.52,1.7,5.52,5.52v41.62c0,1.14.65,1.79,1.79,1.79h3.16v8.68h-9.49c-3.73,0-5.11-1.79-5.11-4.22v-1.54h-.16s-3.41,6.73-12.9,6.73c-11.2,0-18.42-8.84-18.42-21.66s7.87-21.66,18.82-21.66Zm12.25,21.58c0-6.41-3.33-12.74-10.22-12.74-5.68,0-10.38,4.62-10.38,12.82s4.14,12.98,10.22,12.98c5.35,0,10.38-3.89,10.38-13.06Z"/>
      <path class="cls-1" d="m334.1,31.64h1.3v-.32c0-5.92-2.35-8.11-7.63-8.11-1.87,0-5.52.49-5.52,2.76v2.19h-9.57v-4.38c0-7.71,10.87-8.52,15.17-8.52,13.79,0,17.85,7.22,17.85,16.47v15.42c0,1.14.65,1.79,1.78,1.79h3.25v8.68h-9.25c-3.81,0-5.27-2.11-5.27-4.54,0-1.05.08-1.79.08-1.79h-.16s-3.16,7.3-12.49,7.3c-7.38,0-14.12-4.62-14.12-12.9,0-12.98,17.85-14.04,24.58-14.04Zm-7.95,18.9c5.52,0,9.41-5.84,9.41-10.87v-.97h-1.78c-5.35,0-13.87.73-13.87,6.49,0,2.76,2.03,5.35,6.25,5.35Z"/>
      <path class="cls-1" d="m380.5,26.77c0-1.22-.65-1.78-1.78-1.78h-3.25v-8.76h9.49c3.65,0,5.44,1.7,5.44,4.62v1.22c0,.89-.16,1.78-.16,1.78h.16c1.78-3.49,6.25-8.6,14.6-8.6,9.17,0,14.44,4.79,14.44,15.74v16.15c0,1.14.65,1.79,1.78,1.79h3.25v8.68h-9.82c-3.89,0-5.52-1.62-5.52-5.52v-18.99c0-5.03-1.3-8.44-6.49-8.44-5.52,0-9.65,3.49-11.12,8.44-.57,1.7-.81,3.57-.81,5.52v18.98h-10.22v-30.83Z"/>
      <path class="cls-1" d="m453.19,31.64h1.3v-.32c0-5.92-2.35-8.11-7.63-8.11-1.87,0-5.52.49-5.52,2.76v2.19h-9.57v-4.38c0-7.71,10.87-8.52,15.17-8.52,13.79,0,17.85,7.22,17.85,16.47v15.42c0,1.14.65,1.79,1.78,1.79h3.25v8.68h-9.25c-3.81,0-5.27-2.11-5.27-4.54,0-1.05.08-1.79.08-1.79h-.16s-3.16,7.3-12.49,7.3c-7.38,0-14.12-4.62-14.12-12.9,0-12.98,17.85-14.04,24.58-14.04Zm-7.95,18.9c5.52,0,9.41-5.84,9.41-10.87v-.97h-1.78c-5.35,0-13.87.73-13.87,6.49,0,2.76,2.03,5.35,6.25,5.35Z"/>
      <path class="cls-1" d="m474.69,26.45c-.41-1.05-1.14-1.46-2.27-1.46h-.89v-8.76h5.92c3.41,0,5.03,1.05,6.08,3.89l7.79,21.74c.89,2.43,1.54,5.92,1.54,5.92h.16s.65-3.49,1.46-5.92l7.79-21.74c1.05-2.84,2.76-3.89,6.08-3.89h5.52v8.76h-.97c-1.14,0-1.87.41-2.27,1.46l-11.85,31.15h-12.25l-11.85-31.15Z"/>
      <path class="cls-1" d="m541.63,31.64h1.3v-.32c0-5.92-2.35-8.11-7.63-8.11-1.87,0-5.52.49-5.52,2.76v2.19h-9.57v-4.38c0-7.71,10.87-8.52,15.17-8.52,13.79,0,17.85,7.22,17.85,16.47v15.42c0,1.14.65,1.79,1.78,1.79h3.25v8.68h-9.25c-3.81,0-5.27-2.11-5.27-4.54,0-1.05.08-1.79.08-1.79h-.16s-3.16,7.3-12.49,7.3c-7.38,0-14.12-4.62-14.12-12.9,0-12.98,17.85-14.04,24.58-14.04Zm-7.95,18.9c5.52,0,9.41-5.84,9.41-10.87v-.97h-1.78c-5.35,0-13.87.73-13.87,6.49,0,2.76,2.03,5.35,6.25,5.35Z"/>
      <path class="cls-1" d="m560.04,65.63c2.92,0,8.28-.89,8.28-7.63v-31.24c0-1.22-.65-1.78-1.78-1.78h-3.25v-8.76h9.82c3.89,0,5.52,1.7,5.52,5.52v37.08c0,13.87-11.6,15.58-17.28,15.58-1.87,0-3.08-.24-3.08-.24v-8.68s.73.16,1.78.16ZM568.73,0h9.01v9.49h-9.01V0Z"/>
      <path class="cls-1" d="m611.81,31.64h1.3v-.32c0-5.92-2.35-8.11-7.63-8.11-1.87,0-5.52.49-5.52,2.76v2.19h-9.57v-4.38c0-7.71,10.87-8.52,15.17-8.52,13.79,0,17.85,7.22,17.85,16.47v15.42c0,1.14.65,1.79,1.78,1.79h3.25v8.68h-9.25c-3.81,0-5.27-2.11-5.27-4.54,0-1.05.08-1.79.08-1.79h-.16s-3.16,7.3-12.49,7.3c-7.38,0-14.12-4.62-14.12-12.9,0-12.98,17.85-14.04,24.58-14.04Zm-7.95,18.9c5.52,0,9.41-5.84,9.41-10.87v-.97h-1.78c-5.35,0-13.87.73-13.87,6.49,0,2.76,2.03,5.35,6.25,5.35Z"/>
      <path class="cls-1" d="m672.9,15.25c9.01,0,11.93,5.03,11.93,5.03h.16s-.08-1.05-.08-2.43v-7.3c0-1.22-.65-1.79-1.78-1.79h-3.25V0h9.82c3.81,0,5.52,1.7,5.52,5.52v41.62c0,1.14.65,1.79,1.79,1.79h3.16v8.68h-9.49c-3.73,0-5.11-1.79-5.11-4.22v-1.54h-.16s-3.41,6.73-12.9,6.73c-11.2,0-18.42-8.84-18.42-21.66s7.87-21.66,18.82-21.66Zm12.25,21.58c0-6.41-3.33-12.74-10.22-12.74-5.68,0-10.38,4.62-10.38,12.82s4.14,12.98,10.22,12.98c5.35,0,10.38-3.89,10.38-13.06Z"/>
      <path class="cls-1" d="m725.55,15.25c11.85,0,18.34,8.68,18.34,19.63,0,1.22-.24,3.81-.24,3.81h-28.56c.81,7.3,6.17,11.12,12.41,11.12,6.65,0,11.6-4.62,11.6-4.62l4.3,7.14s-6.33,6.25-16.63,6.25c-13.71,0-22.23-9.9-22.23-21.66,0-12.74,8.6-21.66,21.01-21.66Zm7.79,16.31c-.16-4.95-3.57-8.36-7.79-8.36-5.27,0-9.01,3.16-10.14,8.36h17.93Z"/>
      <path class="cls-1" d="m795.89,31.64h1.3v-.32c0-5.92-2.35-8.11-7.63-8.11-1.87,0-5.52.49-5.52,2.76v2.19h-9.57v-4.38c0-7.71,10.87-8.52,15.17-8.52,13.79,0,17.85,7.22,17.85,16.47v15.42c0,1.14.65,1.79,1.79,1.79h3.25v8.68h-9.25c-3.81,0-5.27-2.11-5.27-4.54,0-1.05.08-1.79.08-1.79h-.16s-3.16,7.3-12.49,7.3c-7.38,0-14.12-4.62-14.12-12.9,0-12.98,17.85-14.04,24.58-14.04Zm-7.95,18.9c5.52,0,9.41-5.84,9.41-10.87v-.97h-1.78c-5.35,0-13.87.73-13.87,6.49,0,2.76,2.03,5.35,6.25,5.35Z"/>
      <path class="cls-1" d="m820.55,10.55c0-1.22-.65-1.79-1.78-1.79h-3.25V0h9.82c3.81,0,5.52,1.7,5.52,5.52v41.62c0,1.14.65,1.79,1.79,1.79h3.16v8.68h-9.74c-3.89,0-5.52-1.62-5.52-5.52V10.55Z"/>
      <path class="cls-1" d="m858.6,15.25c9.57,0,12.74,5.84,12.74,5.84h.16v-1.05c0-1.87,1.3-3.81,4.54-3.81h9.57v8.76h-3.16c-1.05,0-1.79.57-1.79,1.62v28.48c0,14.2-11.03,19.55-21.82,19.55-5.19,0-10.71-1.46-14.68-3.57l3.16-8.11s5.11,2.76,11.44,2.76,11.68-2.68,11.68-10.14v-1.95c0-.97.08-2.19.08-2.19h-.16c-2.43,3.49-6,5.35-11.52,5.35-11.84,0-18.58-9.57-18.58-20.93s6.41-20.61,18.33-20.61Zm12.09,20.69c0-9.41-4.71-11.93-10.3-11.93-6.25,0-9.65,4.54-9.65,11.52s3.65,12.58,10.3,12.58c4.95,0,9.65-2.84,9.65-12.17Z"/>
      <path class="cls-1" d="m912.55,15.25c12.66,0,22.72,9.01,22.72,21.66s-10.06,21.66-22.72,21.66-22.64-8.92-22.64-21.66,10.06-21.66,22.64-21.66Zm0,34.56c6.73,0,12.33-5.19,12.33-12.9s-5.6-12.9-12.33-12.9-12.25,5.27-12.25,12.9,5.6,12.9,12.25,12.9Z"/>
      <path class="cls-1" d="m18.74,99.63c9.41,0,12.82,6.08,12.82,6.08h.16v-1.46c0-2.11,1.54-3.65,5.27-3.65h9.09v8.76h-3.25c-1.14,0-1.79.57-1.79,1.78v47.06h-10.3v-17.52c0-2.11.16-3.57.16-3.57h-.16s-3.49,5.84-12.41,5.84c-11.2,0-18.34-8.84-18.34-21.66s7.79-21.66,18.74-21.66Zm12.33,21.58c0-6.41-3.41-12.74-10.3-12.74-5.6,0-10.38,4.62-10.38,12.82s4.22,12.98,10.3,12.98c5.35,0,10.38-3.89,10.38-13.06Z"/>
      <path class="cls-1" d="m54.36,111.15c0-1.22-.65-1.78-1.79-1.78h-3.25v-8.76h9.82c3.81,0,5.44,1.7,5.44,5.44v19.07c0,5.03,1.3,8.44,6.41,8.44,7.46,0,11.6-6.57,11.6-13.96v-18.98h10.3v30.91c0,1.14.65,1.79,1.78,1.79h3.25v8.68h-9.49c-3.57,0-5.44-1.7-5.44-4.62v-1.14c0-.97.08-1.87.08-1.87h-.16c-1.95,4.3-7.14,8.6-14.28,8.6-8.84,0-14.28-4.46-14.28-15.74v-16.06Z"/>
      <path class="cls-1" d="m123.15,99.63c11.85,0,18.34,8.68,18.34,19.63,0,1.22-.24,3.81-.24,3.81h-28.56c.81,7.3,6.17,11.11,12.41,11.11,6.65,0,11.6-4.62,11.6-4.62l4.3,7.14s-6.33,6.25-16.63,6.25c-13.71,0-22.23-9.9-22.23-21.66,0-12.74,8.6-21.66,21.01-21.66Zm7.79,16.31c-.16-4.95-3.57-8.36-7.79-8.36-5.27,0-9.01,3.16-10.14,8.36h17.93Z"/>
      <path class="cls-1" d="m168.99,132.97h3.49c1.14,0,1.78-.65,1.78-1.78v-46.81h9.57l21.82,31.88c2.27,3.33,4.79,8.11,4.79,8.11h.16s-.57-4.79-.57-8.11v-26.37c0-3.81,1.62-5.52,5.52-5.52h10.38v9h-3.49c-1.14,0-1.78.65-1.78,1.79v46.81h-9.49l-21.91-31.8c-2.27-3.25-4.79-8.11-4.79-8.11h-.16s.57,4.79.57,8.11v26.29c0,3.89-1.62,5.52-5.52,5.52h-10.38v-9.01Z"/>
      <path class="cls-1" d="m260.91,83.4c16.96,0,29.77,12.9,29.77,29.37s-12.82,30.18-29.77,30.18-29.77-13.22-29.77-30.18,12.82-29.37,29.77-29.37Zm0,49.65c10.38,0,18.74-8.76,18.74-20.28s-8.36-19.47-18.74-19.47-18.74,8.44-18.74,19.47,8.36,20.28,18.74,20.28Z"/>
      <path class="cls-1" d="m338.23,99.63c11.85,0,18.34,8.68,18.34,19.63,0,1.22-.24,3.81-.24,3.81h-28.56c.81,7.3,6.17,11.11,12.41,11.11,6.65,0,11.6-4.62,11.6-4.62l4.3,7.14s-6.33,6.25-16.63,6.25c-13.71,0-22.23-9.9-22.23-21.66,0-12.74,8.6-21.66,21.01-21.66Zm7.79,16.31c-.16-4.95-3.57-8.36-7.79-8.36-5.27,0-9.01,3.16-10.14,8.36h17.93Z"/>
      <path class="cls-1" d="m366.54,111.15c0-1.22-.65-1.78-1.78-1.78h-3.25v-8.76h9.41c3.65,0,5.52,1.54,5.52,5.03v2.43c0,1.54-.16,2.6-.16,2.6h.16c1.87-5.92,6.81-10.63,13.14-10.63.89,0,1.87.16,1.87.16v10.14s-1.05-.16-2.52-.16c-4.38,0-9.41,2.52-11.28,8.68-.57,2.03-.89,4.3-.89,6.73v16.39h-10.22v-30.83Z"/>
      <path class="cls-1" d="m418.06,116.02h1.3v-.32c0-5.92-2.35-8.11-7.63-8.11-1.87,0-5.52.49-5.52,2.76v2.19h-9.57v-4.38c0-7.71,10.87-8.52,15.17-8.52,13.79,0,17.85,7.22,17.85,16.47v15.42c0,1.14.65,1.79,1.78,1.79h3.25v8.68h-9.25c-3.81,0-5.27-2.11-5.27-4.54,0-1.05.08-1.79.08-1.79h-.16s-3.16,7.3-12.49,7.3c-7.38,0-14.12-4.62-14.12-12.9,0-12.98,17.85-14.04,24.58-14.04Zm-7.95,18.9c5.52,0,9.41-5.84,9.41-10.87v-.97h-1.78c-5.35,0-13.87.73-13.87,6.49,0,2.76,2.03,5.35,6.25,5.35Z"/>
      <path class="cls-1" d="m484.99,116.02h1.3v-.32c0-5.92-2.35-8.11-7.63-8.11-1.87,0-5.52.49-5.52,2.76v2.19h-9.57v-4.38c0-7.71,10.87-8.52,15.17-8.52,13.79,0,17.85,7.22,17.85,16.47v15.42c0,1.14.65,1.79,1.78,1.79h3.25v8.68h-9.25c-3.81,0-5.27-2.11-5.27-4.54,0-1.05.08-1.79.08-1.79h-.16s-3.16,7.3-12.49,7.3c-7.38,0-14.12-4.62-14.12-12.9,0-12.98,17.85-14.04,24.58-14.04Zm-7.95,18.9c5.52,0,9.41-5.84,9.41-10.87v-.97h-1.78c-5.35,0-13.87.73-13.87,6.49,0,2.76,2.03,5.35,6.25,5.35Z"/>
      <path class="cls-1" d="m509.9,111.15c0-1.22-.65-1.78-1.78-1.78h-3.25v-8.76h9.49c3.65,0,5.44,1.7,5.44,4.62v1.22c0,.89-.08,1.79-.08,1.79h.16c1.95-4.06,6.9-8.6,13.39-8.6s10.3,2.92,12.09,8.52h.16c2.19-4.46,7.54-8.52,14.12-8.52,8.6,0,13.55,4.87,13.55,15.74v16.15c0,1.14.65,1.79,1.78,1.79h3.16v8.68h-9.74c-3.89,0-5.52-1.62-5.52-5.52v-19.15c0-4.71-.89-8.28-5.68-8.28-5.11,0-8.76,4.3-9.9,9.49-.49,1.62-.65,3.33-.65,5.27v18.17h-10.3v-24.66c0-4.46-.65-8.28-5.6-8.28-5.19,0-8.68,4.3-9.98,9.57-.41,1.62-.65,3.33-.65,5.19v18.17h-10.22v-30.83Z"/>
      <path class="cls-1" d="m604.91,99.63c12.66,0,22.72,9.01,22.72,21.66s-10.06,21.66-22.72,21.66-22.64-8.92-22.64-21.66,10.06-21.66,22.64-21.66Zm0,34.56c6.73,0,12.33-5.19,12.33-12.9s-5.6-12.9-12.33-12.9-12.25,5.27-12.25,12.9,5.6,12.9,12.25,12.9Z"/>
      <path class="cls-1" d="m636.95,111.15c0-1.22-.65-1.78-1.78-1.78h-3.25v-8.76h9.41c3.65,0,5.52,1.54,5.52,5.03v2.43c0,1.54-.16,2.6-.16,2.6h.16c1.87-5.92,6.81-10.63,13.14-10.63.89,0,1.87.16,1.87.16v10.14s-1.05-.16-2.52-.16c-4.38,0-9.41,2.52-11.28,8.68-.57,2.03-.89,4.3-.89,6.73v16.39h-10.22v-30.83Z"/>
    </g>
  </g>
</svg>