<?xml version="1.0" encoding="UTF-8"?>
<svg id="Capa_2" data-name="Capa 2" xmlns="http://www.w3.org/2000/svg" viewBox="0 0 549.7 87.77">
  <defs>
    <style>
      .cls-1 {
        fill: #050504;
      }

      .cls-2 {
        fill: #2670ca;
      }
    </style>
  </defs>
  <g id="Capa_1-2" data-name="Capa 1">
    <g>
      <path class="cls-2" d="m37.66,81.54c0-3.44,2.79-6.22,6.22-6.22,3.44,0,6.22,2.79,6.22,6.22,0,3.44-2.79,6.22-6.22,6.22s-6.22-2.79-6.22-6.22h0Z"/>
      <path class="cls-2" d="m58.69,81.54c0-3.01,2.44-5.44,5.44-5.44,3.01,0,5.44,2.44,5.44,5.44,0,3.01-2.44,5.44-5.44,5.44h0c-3.01,0-5.44-2.44-5.44-5.44Z"/>
      <path class="cls-2" d="m18.19,81.54c0-3.01,2.44-5.44,5.44-5.44,3.01,0,5.44,2.44,5.44,5.44s-2.44,5.44-5.44,5.44c-3.01,0-5.45-2.43-5.45-5.44,0,0,0,0,0,0h0Z"/>
      <path class="cls-2" d="m77.65,81.54c0-2.58,2.08-4.67,4.65-4.68,2.58,0,4.67,2.08,4.68,4.65,0,2.58-2.08,4.67-4.65,4.68,0,0-.01,0-.02,0-2.57,0-4.66-2.08-4.67-4.65h0Z"/>
      <path class="cls-2" d="m.78,81.54c0-2.58,2.08-4.67,4.65-4.68,2.58,0,4.67,2.08,4.68,4.65,0,2.58-2.08,4.67-4.65,4.68,0,0-.01,0-.02,0-2.57,0-4.66-2.08-4.67-4.65h0Z"/>
      <path class="cls-2" d="m36.88,63.77c0-3.87,3.13-7,7-7s7,3.13,7,7-3.13,7-7,7h0c-3.87,0-7-3.13-7-7h0s0,0,0,0Z"/>
      <g>
        <path class="cls-1" d="m215.91,39.22c-1.02-2.56-2.61-4.85-4.65-6.69-1.87-1.64-4.02-2.94-6.34-3.83-2.24-.86-4.62-1.3-7.02-1.31-4.71-.2-9.24,1.82-12.22,5.47v-4.65h-11.18v59.55h11.19v-22.75c3.2,3.38,7.75,5.15,12.4,4.81,5.05-.06,9.88-2.09,13.46-5.64,4.21-4.06,6.44-9.75,6.12-15.58.05-3.21-.55-6.4-1.75-9.38Zm-20.12,20.32c-2.84.06-5.56-1.11-7.46-3.23-1.97-2.11-3.04-4.91-2.98-7.79-.07-2.87,1-5.66,2.98-7.75,1.91-2.09,4.64-3.26,7.47-3.19,2.91-.08,5.73,1.05,7.79,3.1,2.09,2.06,3.23,4.9,3.13,7.84,0,.16,0,.32,0,.48-.11,5.93-5,10.65-10.93,10.54Z"/>
        <path class="cls-1" d="m446.47,33.6c-4.03,3.95-6.26,9.38-6.16,15.01-.1,5.64,2.13,11.07,6.16,15.01,0,0,.02.02.03.03,8.26,8.24,21.63,8.23,29.88-.03,4.05-3.93,6.3-9.37,6.2-15.01.1-5.64-2.13-11.07-6.16-15.01-8.27-8.27-21.67-8.27-29.94,0Zm22.24,22.49c-1.87,2.03-4.51,3.17-7.26,3.13-2.75.06-5.4-1.07-7.26-3.1-3.92-4.24-3.92-10.78,0-15.01h0c.12-.13.25-.25.38-.37,4.02-3.79,10.35-3.6,14.14.42,4.03,4.16,4.03,10.77,0,14.93Z"/>
        <path class="cls-1" d="m418.45,37.99c2.08-.01,4.12.61,5.83,1.8,1.73,1.14,3.05,2.8,3.79,4.73l9.95-4.22c-1.55-3.82-4.21-7.08-7.63-9.38-3.56-2.37-7.76-3.6-12.03-3.51-5.63-.1-11.06,2.15-14.97,6.2-4.03,3.95-6.26,9.38-6.16,15.01-.1,5.64,2.13,11.07,6.16,15.01,3.92,4.04,9.34,6.28,14.97,6.18,4.28.09,8.47-1.14,12.03-3.51,3.42-2.3,6.08-5.56,7.63-9.38l-9.95-4.24c-.74,1.93-2.07,3.59-3.79,4.73-1.72,1.18-3.75,1.8-5.83,1.79-2.8.06-5.5-1.07-7.43-3.1-4.03-4.2-4.03-10.82,0-15.01,1.93-2.03,4.62-3.16,7.43-3.1Z"/>
        <path class="cls-1" d="m341.31,33.6c-4.03,3.95-6.26,9.38-6.16,15.01-.1,5.64,2.13,11.07,6.16,15.01h0s.02.02.03.03c8.26,8.24,21.63,8.23,29.88-.03,4.05-3.93,6.29-9.37,6.2-15.01.1-5.64-2.13-11.07-6.16-15.01-8.27-8.27-21.67-8.27-29.94,0Zm22.93,22.49c-1.94,2.03-4.69,3.17-7.55,3.13-2.86.06-5.61-1.07-7.55-3.1-4.07-4.24-4.07-10.78,0-15.01h0c.13-.13.26-.25.39-.37,4.18-3.79,10.77-3.6,14.71.42,4.19,4.16,4.19,10.77,0,14.93Z"/>
        <path class="cls-1" d="m275.91,50.48c.2,2.63-.57,5.24-2.16,7.34-1.4,1.61-3.45,2.51-5.59,2.45-2.11.14-4.17-.68-5.59-2.24-1.39-1.84-2.07-4.11-1.92-6.41v-23.41h-11.34v24.88c-.28,4.48,1.18,8.89,4.07,12.32,2.97,3.04,7.1,4.65,11.34,4.41,4.38.09,8.54-1.87,11.26-5.3v4.49h11.11V28.21h-11.18v22.27Z"/>
        <path class="cls-1" d="m157.35,32.21c-3.18-3.26-7.6-5.01-12.15-4.81-3.22-.01-6.39.74-9.26,2.19-3.1,1.66-5.69,4.14-7.46,7.18-2.13,3.57-3.21,7.67-3.1,11.83-.32,5.84,1.93,11.53,6.16,15.58h0c3.6,3.55,8.43,5.56,13.49,5.63,4.72.2,9.26-1.79,12.32-5.38v4.57h11.18V28.21h-11.18v3.99Zm-2.63,24.1c-1.9,2.11-4.63,3.29-7.47,3.23-.16,0-.32,0-.49,0-5.93-.16-10.6-5.09-10.45-11.02-.09-2.93,1.04-5.77,3.13-7.84v.02c2.07-2.06,4.88-3.18,7.8-3.11,2.83-.07,5.55,1.09,7.47,3.18,1.97,2.09,3.04,4.87,2.98,7.75.06,2.89-1.01,5.68-2.98,7.79Z"/>
        <path class="cls-1" d="m545.74,31.76c-.36-.33-.73-.64-1.11-.93-7.24-5.58-17.63-4.23-23.21,3.01-2.62-4.37-7.49-6.87-12.57-6.45-4.23-.13-8.27,1.78-10.85,5.14v-4.32h-11.1v40.79h11.18v-22.27c-.19-2.6.51-5.2,2-7.34,1.3-1.62,3.28-2.52,5.35-2.45,4.73,0,7.1,2.88,7.1,8.65v23.42h11.34v-22.27c-.19-2.6.51-5.2,2-7.34,1.29-1.61,3.27-2.52,5.33-2.45,4.73,0,7.1,2.88,7.1,8.65v23.42h11.36s0-24.88,0-24.88c.29-4.46-1.11-8.88-3.92-12.36Z"/>
        <rect class="cls-1" x="381.73" y="57.82" width="11.18" height="11.18"/>
        <path class="cls-1" d="m315.4,27.39c-4.4-.13-8.6,1.88-11.26,5.38v-4.57h-11.1v40.79h11.18v-22.27c-.2-2.63.57-5.24,2.16-7.34,1.4-1.61,3.45-2.51,5.59-2.45,2.11-.14,4.16.68,5.59,2.24,1.39,1.83,2.07,4.11,1.92,6.4v23.42h11.34s0-24.88,0-24.88c.28-4.48-1.18-8.89-4.07-12.32-2.97-3.04-7.1-4.65-11.34-4.41Z"/>
        <path class="cls-1" d="m236.5,12.54l-11.18,6.12v9.55h-6.93v10.03h6.93v13.05c.01,6.63,1.26,11.24,3.76,13.83,2.5,2.58,6.98,3.88,13.46,3.88h1.63v-10.45c-2.2.28-4.43-.16-6.36-1.25-1.13-1.81-1.59-3.96-1.3-6.08v-12.97h7.67v-10.03h-7.67v-15.67Z"/>
      </g>
      <path class="cls-2" d="m57.9,62.49c0-3.44,2.78-6.23,6.22-6.23,3.44,0,6.23,2.78,6.23,6.22,0,3.44-2.78,6.23-6.22,6.23h0c-3.44,0-6.22-2.79-6.22-6.22Z"/>
      <path class="cls-2" d="m17.41,62.49c0-3.44,2.79-6.22,6.22-6.22s6.22,2.79,6.22,6.22c0,3.43-2.78,6.22-6.22,6.22-3.44,0-6.22-2.79-6.22-6.22h0Z"/>
      <path class="cls-2" d="m77.65,62.49c0-2.58,2.09-4.67,4.67-4.67s4.67,2.09,4.67,4.67-2.09,4.67-4.67,4.67c-2.58,0-4.67-2.08-4.67-4.66h0Z"/>
      <path class="cls-2" d="m.78,62.49c0-2.58,2.09-4.67,4.67-4.67s4.67,2.09,4.67,4.67-2.09,4.67-4.67,4.67-4.67-2.09-4.67-4.67h0Z"/>
      <path class="cls-2" d="m36.88,45.33c0-3.87,3.14-7,7-7s7,3.14,7,7c0,3.86-3.13,6.99-7,7-3.87,0-7-3.13-7-7h0s0,0,0,0Z"/>
      <path class="cls-2" d="m57.9,42.65c0-3.44,2.78-6.23,6.22-6.23,3.44,0,6.23,2.78,6.23,6.22,0,3.44-2.78,6.23-6.22,6.23h0c-3.44,0-6.22-2.79-6.22-6.22Z"/>
      <path class="cls-2" d="m17.41,42.65c0-3.44,2.79-6.22,6.22-6.22,3.44,0,6.22,2.79,6.22,6.22,0,3.43-2.78,6.22-6.22,6.22-3.44,0-6.22-2.79-6.22-6.22h0s0,0,0,0Z"/>
      <path class="cls-2" d="m76.87,42.65c0-3.01,2.44-5.44,5.44-5.44s5.44,2.44,5.44,5.44c0,3.01-2.44,5.44-5.44,5.44h0c-3.01,0-5.44-2.44-5.44-5.44h0Z"/>
      <path class="cls-2" d="m0,42.65c0-3.01,2.44-5.44,5.44-5.44s5.44,2.44,5.44,5.44c0,3.01-2.44,5.44-5.44,5.44h0C2.44,48.1,0,45.66,0,42.65Z"/>
      <path class="cls-2" d="m36.88,26.89c0-3.87,3.14-7,7-7,3.87,0,7,3.14,7,7,0,3.86-3.13,7-7,7s-7-3.13-7-7h0Z"/>
      <path class="cls-2" d="m57.13,22.82c0-3.87,3.14-7,7-7,3.87,0,7,3.14,7,7,0,3.86-3.13,7-7,7-3.86,0-7-3.13-7-7h0Z"/>
      <path class="cls-2" d="m16.63,22.82c0-3.87,3.14-7,7-7,3.87,0,7,3.14,7,7,0,3.86-3.13,7-7,7-3.87,0-7-3.13-7-7h0Z"/>
      <path class="cls-2" d="m36.1,7.77C36.11,3.47,39.59,0,43.89,0c4.3,0,7.78,3.49,7.77,7.79,0,4.29-3.49,7.77-7.78,7.77s-7.78-3.48-7.78-7.78h0Z"/>
    </g>
  </g>
</svg>